<mxfile host="app.diagrams.net" agent="Mozilla/5.0 (Windows NT 10.0; Win64; x64) AppleWebKit/537.36 (KHTML, like Gecko) Chrome/131.0.0.0 Safari/537.36" version="24.8.3">
  <diagram name="Страница — 1" id="qTO9t7YW6nZRm4wKpSjx">
    <mxGraphModel dx="2049" dy="1114" grid="1" gridSize="10" guides="1" tooltips="1" connect="1" arrows="1" fold="1" page="1" pageScale="1" pageWidth="827" pageHeight="1169" math="0" shadow="0">
      <root>
        <mxCell id="0" />
        <mxCell id="1" parent="0" />
        <mxCell id="rsWgxEbo7U0VRiBdf6dp-1" value="" style="shape=image;verticalLabelPosition=bottom;labelBackgroundColor=default;verticalAlign=top;aspect=fixed;imageAspect=0;image=data:image/png,iVBORw0KGgoAAAANSUhEUgAABEMAAAM0CAYAAABQ3OwVAAAAAXNSR0IArs4c6QAAAARnQU1BAACxjwv8YQUAAAAJcEhZcwAADsMAAA7DAcdvqGQAAPtuSURBVHhe7N0HfFX13cfxLzsQQggQstl77y0iS1EgA0HFarUWqraPWrGCCwQXKM7WqljraEULQhJkb9kge29C9iBh75HHe/LH64GogBn33nzefd1XzvfXPK/XeXIPl/Dt//xPsewf6AoTJkzQ0KFDTSo8Bw8eVPXq1U0qPK5wHq7ys/it18bO50boyJrVJuXwadxEjd/5u0m/blPSVj3xzbM6c+GsmTh1rdNJ48JHmZT/uEadgoODNWzYMOtVmHhP7DzlsyMv8J7YcW3Y8b44cW3YcW3YucJ5cG3YcR52/M7hxHnYXXltFDdfgQIRGB5pjpyOb9uqI6tXmfTrmoc00ZMdH1GxH/5zpSV7V2jUzLEmAQAAAABwNcoQFKiK7drLp2kzk5xSY6aao2vTLKCRxv7MCpC5Oxbp1TlvmwQAAAAAgB1lCApcYETO6pCTFy7orhVr9OLWHTqy9nsd27zJml+rrnU6akzfZ0yy+3brbL218J8mAQAAAADgRBmCAle5azd516mrXcdPKP7UKc1JTdOslDSlXefqEIde9bvp2VufNMlu8oZYvb/kE5MAAAAAAMhBGYJCERgZpVZ+FVWlTBkrT05IVObSJTq5Z7eVr0e/JrfqqR5/Nsnuv99P0icr/2sSAAAAAACUISgk/r1vk1dIqAaFhVh5x7HjWpSeoZToKVa+XgNa9Ndfuv7RJLt/rfiPVYoAAAAAAOBAGYJCExQZpUHVQlW+ZEkrT0pI0qF5c3UmMcHK1+vetgM1pNP9Jtk5bpf5ZsM0kwAAAAAARRllCApNQHikfPyrWoWIw8bDR7QyM+uGV4c4/KHjvbqv3SCT7N5c+L6+3TLbJAAAAABAUUUZgkLleLKM41aZksWKWXlSfKLSpsXqXEaGlW/Eozc9pEGtIkyye3Xu25q3c7FJAAAAAICiiDIEhSogIkqVfCvqLrM6ZFVmlrVCJDX2+p8s81N/veUR9W96m0l2I2e8piV7V5gEAAAAAChqKENQqEp4eVmrQwaG5ZQhDo69Q1JjonXhxAkzuTHP9P6rbm3Y3SS74bGjtfrgOpMAAAAAAEUJZQgKXWBElALLlVVUaLCVHU+V2ZZxSGkxv211iMOLtw/XzXU6m2Q3Ina0NiZuNQkAAAAAUFRQhqDQlfLzszZTHfST1SGTExKVGhut7IsXzeTGjQ0fqQ4125jkdOb8WY2YNlo7UnebCQAAAACgKKAMgUsIihyg6t7ldHtQoJX3HD+p80eOKDUPVoc4jOs/Si1Cm5rkdPT0MT0zbYwOZMabCQAAAADA01GGwCWUCQqSf5/b9ULjBhresJ5ea9bYmqdG500ZUrpkaY0LH6WGgfXMxCnteIZ1y0zy0VQzAQAAAAB4MsoQuIygiAHW14iQYIWWK2sdn01LVfrM6dbxb1XBy8cqRGpWrm4mTvGHE61CJOvUYTMBAAAAAHgqyhC4jHK1aqnKLVc//SWvVoc4+JevYhUiIb5BZuK0J2O/9ZSZk2dPmQkAAAAAwBNRhsClBEREmSOnU3EHdGjhfJN+uzC/EI0NH6Uq5SuZidPW5B0aPm20Ll767Ru3AgAAAABcE2UIXIpPo8by69DROj56/rzG7dittVmHlRoTbc3ySh3/mnqt30iVL+NtJk7r4jdaK0QAAAAAAJ6JMgQuJ9CsDvlvXIJikpL17JZtOrxtqw6vXGHN80qT4IbWCpFSJUqaidPy/av13LevmAQAAAAA8CSUIXA5vq3bqELzFmpYwcfKx89f0KSEpDx7zO5PtQ5rbhUiuVm4e4lemj3eJAAAAACAp6AMgUtyrA7pHuCvuj7lrTw5IUlH16/T0Y0brJyXOtVsp1f6PW+S3cxt8/T6/PdMAgAAAAB4AsoQuKRKXW6Sd736GhQWYuW0M2esW2bS8mF1iEP3ejdpVJ+nTbKL3jRD7303wSQAAAAAgLujDIHLcqwO6RscpJCyZa08OT5JWcuX6cTOnVbOa7c16qHhPR8zye6rtVP00bLPTAIAAAAAuDPKELgs/169VTasmgaa1SH7T57U3NQ0pcXmz+oQh4jmd+iJWx42ye6z1V/p89VfmwQAAAAAcFeUIXBpARGRVhniV7q0lR17h2TMn6cLyclWzg93tYrUw10eMMnuw2Wf6ut1+VfGAAAAAADyH2UIXFpg/wh5+Vf9cXXI1qPHtCwjUyfmz7Vyfvl9+3v0YIfBJtm9u/gjxWyeYRIAAAAAwN1QhsDlBUVGWWVImeI5l+vkhESdXrJY59LTrZxfhnb+ve5pPcAku3Hz3tOs7fNNAgAAAAC4E8oQuLyAiCj5VqyogWGhVl6TdVjrDx9RSvQUK+enx7oNVVTzvibZjZn1hlYnrjMJAAAAAOAuKEPg8oqXLq2giCgNrJZzq4zDtqPHlBoTrQvHjplJ/vlbz//T7Y17mWT39qqPtHz/GpMAAAAAAO6AMgRuwbE6JMDbWy82aaieAVUVHhKk7AvnlRpTMJuZvnDbU+pRv6tJdiNiR2tdwiaTAAAAAACujjIEbqGUr68CIyJ1a2CAXmraSBVKlbLmjtUhl86ft47z28t9n1PnWu1Ncrpw6YJViGxN2WEmAAAAAABXViwuLi7bHP9o4sSJGjw49ydpFKSkpCSFhDhvjSgsrnAervKzKMxr4+KhQ0of8ZRJThUG3iXvW/uYlL8uXrqo15a9p63pVxcfFb0q6JmbnlB135y9TQqSK1wf7dq105AhQ6xXYeJzw47PDifeEzuuDTveFyeuDTuuDTtXOA+uDTvOw47fOZw4D7srr41i2T8wxz+aMGGChg4dalLhOXjwoKpXr25S4XGF83CVn0VhXxv733lT6TOmm5SjTNUAtfzya5Py36lzp/X4N8/kuhIk2DdQ7wx4VWF+BfuH3RWuj+DgYA0bNsx6FSY+N+z47HDiPbHj2rDjfXHi2rDj2rBzhfPg2rDjPOz4ncOJ87C78trgNhm4lcCIKHMkJZw6rflp6Tqbnqa06dPMNP+VK11W48JHqW7V2mbilHw01bplJv34ITMBAAAAALgayhC4lXI1aqpK9x7W8RMbNumFLdv1jz37lBpdMBupXlbJ288qRILKVzUTp/2ZBzU8drSOnTluJgAAAAAAV0IZArcTGDnA+hpWrpz1dVJCktL27dWhBfOsXFCCKgRoWKdHFeDjbyZOO9N2W4XI2QtnzQQAAAAA4CooQ+B2yjdoKK8WLTUoLGdfjvOXLlmFSEoBrw5xCK0QrLHho1SxrK+ZOG1M3GIVIgAAAAAA10IZArdUrkcvdapSWS0q5pQQkxISdXjHdmUtW2rlgtQgoK5ViHiVLGMmTqvj1mnEtDEmAQAAAABcAWUI3FKZho3k27KVBlbLeYzt8fMXrEIkNTbaygWteUhjqxApVqyYmTh9t2e5Rs0YaxIAAAAAoLBRhsBtOZ4s072qvxpU8LHypPgkHdu4QUfXrbVyQWtfo7VViORm7s5Fem3uOyYBAAAAAAoTZQjcll+nztb+IZf3Dsk4e1bfJCQpNaZwVoc4dK3dUWPuGGGS3bQts/TWwn+aBAAAAAAoLJQhcGuO1SF9ggJVw/vyk2USdXjVCh3fvs3KhaFXg1v03K1PmmQ3eUOs/rn0E5MAAAAAAIWBMgRurUqPnipbo4YGheXsHZJw6rSmJ6corRBXhzj0bXKrhnX/s0l2/1kzSZ+s/K9JAAAAAICCRhkCtxcYHqXI0GAFenlZ2fGY3UOLFujUgf1WLix3tuyvv3T9o0l2/1rxH335/WSTAAAAAAAFiTIEbi+gbz+VCQjQoGo5e4fsOX5Ce0+cKPTVIQ73th2oP3a6zyS7fyz5l77ZMM0kAAAAAEBBoQyBRwiIiLJulWlTyU9h5coqpGxZpc2crrOpKeY7Cs9DHX+n+9oNMsnuzYXva/rWOSYBAAAAAAoCZQg8QlBElMr4+urvrZprUqf2KluihDVPiZ5qfS1sj970kAa2DDfJ7pU5b2nezkUmAQAAAADyG2UIPEKxkiUVFDnAJKe0mKm6cPSISYXrye6Pqn/TPibZjZwxVkv2rTQJAAAAAJCfKEPgMQIiIlWsVCmTcmRfuuQyq0Mcnun9hHo3uMUkuxGxo7U6bp1JAAAAAID8QhkCj1GyvI9tdci5S5d0+Nw5pcZM1cWzZ8y08I2+Y4RurtvZJKfs7GyrENmUtM1MAAAAAAD5gTIEHiUwItL6mnXunAYuX63+S1dqa0qqSzxZ5qfG9h+p9jVam+R05sJZqxDZmbbHTAAAAAAAeY0yBB6ltH9VBfQLV7kSJZR+9qwuZGdrckKitTrE1YwLH6UWoU1Ncjpy+qhViBzIPGgmAAAAAIC8RBkCj+NYHeJVooRuDwq08qyUNO05GK+0aTFWdhVlSpaxCpEGAfXMxCnteIZViKQcSzMTAAAAAEBeoQyBxylbrbqq9OytgWEhZiJNTkhyydUhFbx8rEKkVuXqZuIUfzhJw2NHK+vkYTMBAAAAAOQFyhB4JMfqkAYVfNStqr+VpyQmKX7vXmXMnWNlV1LVp4rGho9SsG/OSpaf2pO+zypETp07bSYAAAAAgN+KMgQeqXz9BqrU+aZcVodMMcm1hPmFWIVIZW8/M3HamrLDKkQuXrpoJgAAAACA34IyBB4rMDJKrfwqql2lnILBUYak79ihrKVLrOxq6vrXsgqR8mW8zcRpbfwGqxABAAAAAPx2lCHwWBWat5BvqzYaGBZq5TMXL1qFSEq0a64OcWgS1NAqREoWL2kmTsv3r9bz018xCQAAAABwoyhD4NEcq0O6+FdWY98KVnaUIce2bNaR79dY2RW1DmtuFSK5WbBriV6aPd4kAAAAAMCNoAyBR/Pr0FE+jZtokNk7JOvcOU1OSHTJJ8v8VOda7fRqv+dNspu5bZ7emP93kwAAAAAA14syBB4vMDxSvQMDVNM7Zy8Ox+qQI2tW6/jWLVZ2VbfUu0kj+/zNJLupm6brvcUTTAIAAAAAXA/KEHi8yrd0V7latX98soxvqVLWV1dfHeLQp1FPDe/1mEl2X62bognLPzcJAAAAAHCtKENQJARGRCoyNFiTO7XXuy2bWbPM7xbr5L691rEri2h2hx7v9ieT7D5dNVGfr/7KJAAAAADAtaAMQZFQtc8d8goKUmi5svIu6XxSS5obrA5xuLt1lB7u8qBJdh8u+0yz9i4wCQAAAADwayhDUGQERESZI6f02bN0JjnJJNf2+/Z364H295hk9/nG/ylm0wyTAAAAAAC/hDIERUZQ5ACVqljRJCd32Dvksj91eUD3tBlgkt24+e9p9nZWiAAAAADArykWFxeXbY5/NHHiRA0ePNikwpOUlKSQkJxNLwuTK5yHq/ws3P3aOD59mk7ETNXBk6f01KYtuqlKFT1Wr7YC3nxXxX19zXddu8J6X/61/r+av3+JSXZPdPiTOoS2NqngtGvXTkOGDLFehYnPDTs+O5x4T+y4Nux4X5y4Nuy4Nuxc4Ty4Nuw4Dzt+53DiPOyuujayc/HRRx+Zo8LlKGpcgSuch6v8LNz92rhw8mT26jtuzX62UX1HCWi9/tm6RfbBTz4233F9CvN9GTPrjewO43vn+lq+f7X5roITFBSUPX78eJMKD58bdnx2OPGe2HFt2PG+OHFt2HFt2LnCeXBt2HEedvzO4cR52F15bXCbDIqUEuXKWbfLtKtUyUykyQlJ1kaql06fNhP38MJtT6l7va4m2Y2IHa11CZtMAgAAAAD8FGUIihzHRqoBXmWsR+06LErP0Pb0dKVEu8/eIZe90u85da7V3iSn8xcvWIXI1uQdZgIAAAAAuIwyBEVO6cqVFRgeqYFhzvvWHKtDUmOnOm4bMxP3MS58lBpXbWCS04mzJ/XMt2O0N+OAmQAAAAAAHChDUCQFRkSppre3bg0MsPKM5FTtT3TcLhNtZXdSongJPdXxUTUNbmgmTodOZFkrRBIOu8fjgwEAAACgIFCGoEjyCg2Vf+/brlgdkuhWj9n9qbKlvDQ2fJTq+tcyE6ekoykaHjtaGScOmQkAAAAAFG2UISiyAiMi1di3gm7yr2Jlx60ySXEHlDF7lpXdTaVyflYhUs0v1EycDmQetAqRY2eOmwkAAAAAFF2UISiyvOvWU6WuN1+9d4ibrg5xCPYNtAqRquVzCp6f2pG62ypEzl04ZyYAAAAAUDRRhqBIc2yk2raSn1r7VbTy5PhEHdq9S5nfLbayO6pZuZpViPiWrWAmThsTt2j4tNEmAQAAAEDRRBmCIq1Cs+aq2LadBobl3Fpy6uLFnNUh0VOs7K4aBtbT2P6j5FWqjJk4rTqwViNix5gEAAAAAEUPZQiKvMDIKN1ctYoaVvCxcsKp0zq+bauOrFltZXfVIrSJtUIkN9/tXa4XZ44zCQAAAACKFsoQFHkV27aXT5Omerdlc41oWF/PNapvzVPcfHWIQ/vqrTXuZwqROTsW6rW5b5sEAAAAAEUHZQjwg6DIKPmUKqnwkCAzkY6u/V7HNm8yyX11rdNJY+54xiS7aVtm6+1FH5gEAAAAAEUDZQjwg0pdu8m7Tl2TnNz5yTI/1atBNz3b+68m2U1aH6N/Lv3EJAAAAADwfJQhgBEYEWmOnLKWLtHJPbtNcm/9mt6mYd3/bJLdf9ZM0r9XfmkSAAAAAHg2yhDA8L+1j7xCcp4qs/fECb2/Z7+Onj/vMatDHO5s2V9/7vqQSXYfr/hCX34/2SQAAAAA8FyUIcBPXF4d8u7uffrvwXg9v2W7MubO0emEBGvuCX7XdpD+2Ok+k+z+seRfmrJxmkkAAAAA4JkoQ4CfCIyIUulKldXIPGZ3bdZhff/DKy3Wc1aHODzU8XdWKZKb8Qve17db55gEAAAAAJ6HMgS4QkBEpAZVC1UxkyclJCo1NkbnDh0yE8/guF1mYMtwk+xenfOW5u1abBIAAAAAeBbKEOAKQZEDVLViRasQcViWkaktR4961N4hlz3Z/VH1a3KbSXYjp7+mJXtXmgQAAAAAnoMyBLhCcS8vBYRHamBYiJlIk+KTrDLk4smTZuI5nr31r+rd8BaT7EbEjtaag+tNAgAAAADPQBkC5MKxOiSkXDmFhwRZeX5aunYdylRK9BQre5rRt49Q1zqdTHLK/uE/jkJkU9JWMwEAAAAA90cZAuSilJ+fgiKjNCgs51YZh0kJjtUh0dKlS2biWcaFj1L7Gm1Mcjp9/oxGxI7RzrQ9ZgIAAAAA7o0yBPgZAeFRqlXeW70DA6w8PTlFB1JSPHZ1iIOjEGkR0sQkpyOnj+qZaWMUlxVvJgAAAADgvihDgJ/hFRysqn1u16Cf7h3ieLKMY3WIhypTsrTGho9Sw4B6ZuKUeixdw2NHK+VompkAAAAAgHuiDAF+QWBElBr7VlBX/ypW/iYhSYkH45Q+c7qVPZFv2QpWIVKzcjUzcYrPSrQKkcOnjpgJAAAAALgfyhDgF5SrVVuVu93y42N2HbYePebRq0McqvpUsQqRYN9AM3Hak7HPKkROnTtlJgAAAADgXihDgF/hWB3S2q+i/lirhjpUrqSb/avo1IH9OrRogfkOz1TNL9QqRCp7VzITpy3J2zU8dowuZXvmZrIAAAAAPBtlCPArfBo3UcX2HfRQrRp6u2UzFS9WzJqnefjqEIe6/rX0Wv+R8i5dzkyc1sZvsFaIAAAAAIC7oQwBroFjdciVjm/fpjObNpjkuZqFNNL37y1R9sVsM3Fatm+Vnp/+ikkAAAAA4B4oQ4BrULFNW1Vo1twkp1ML5psjz9ShQwcNGjRIR/dk6q07XzZTuwW7lujl2W+aBAAAAACujzIEuEaBkQPMkbTr+HGtyszS2e3bdGyj564OWb16tR566CHruFOtdmp4tLp1fKUZ2+aqUo9gkwAAAADAtVGGANeoUpeb5F23nnX8+PrN+uuGzYpJSlZKzFRr5onat2+vTz75xCRp9r+mq/6xqx+56+DTorI2a7dJAAAAAOC6KEOA6xBkVoeUL1nS+jo5PkmHly/TyV07rexpVq1aZX0tVqyY9Ro5cqQ+G/2xnu75mDW/0m7FacLyz00CAAAAANdEGQJchyq9eqtsWDUNDAux8v6TJzU3NU0p0Z65OsRRgFSvXl3Z2dnW67PPPrP2EYlsfoce7/Yn8112n66aqC/WfG0SAAAAALieYh999NFVj4hYsmSJunbtalLhyczMVOXKlU0qPK5wHq7ys+DakCrv3aOg9d+r79KVOnzunJr4VtDHbVtp162362wFX/NdBSuvfx7333+/VXyMGTNGycnJOnbsmLy8vJSQkKA6depo7969Kl26tMbGvK3157aZ/yu79mWaq1HpOiYVHD437PjscOI9sePasON9ceLasOPasHOF8+DasOM87Pidw4nzsLvq2sjOhaMgcQVxcXHmqHC5wnm4ys+CayPHunsGZg+tXdNRJFqvN5o3zd7/zlvmvy14+fHz+OCDD7KDgoJMyrF3717r/1/H18s+XPZpdofxvXN9RW+aYb6r4PC5YcdnhxPviR3Xhh3vixPXhh3Xhp0rnAfXhh3nYcfvHE6ch92V1wa3yQA3IDA8yrpVpkzxnD9CkxMSlTZ9ms6mp1nZEzz88MNKSUnR008/bSbSvffea22qWrt2bTOR/tT5Ad3dOsoku3Hz3tWs7QtMAgAAAADXQBkC3IDAiEhVrFhRA8NCrbwm67DWHz6itJhoK3uK7OxsvfHGGz9uoOpweVPVn3LsH3J8U5ZJdmNmva5Fe5aZBAAAAACFjzIEuAHFy5RRQESUBlbL2UjVYXJCklJjpurC8eNm4hkchcjlV25FyGVZ85NUXcEm2T077SWtOLDGJAAAAAAoXJQhwA0KiohSQLlyigrNKQAWp2doR1aWVYgUVW3VRN3r5b5h1YjY0VqfsNkkAAAAACg8lCHADSrp66ty3Xv+eKuMg7U6JHqKsi9cMJOi55V+z6lTrXYmOZ2/eMEqRLal7DQTAAAAACgclCHAb+Dds5dqeJfTbUEBVp6RnGrdJlOUV4c4jAsfpTbVWpjkdPzsCasQ2Zux30wAAAAAoOBRhgC/QYnKVRRwRz/dXS1UvqVKqZVfRWueEj3F+lpUlSxeUmPDR6lJUEMzcTp0MkvDY8co8UiymQAAAABAwaIMAX6jgIhI1ffx0eybO+v91jmrIc6lp1uP2i3KvEuX09jwkarrX8tMnJKPpmh47GhlnDhkJgAAAABQcChDgN+oXI2aqtK9h0lORf1WGYfK3pWsFSJhFZ1P3bls/6E4qxA5fuaEmQAAAABAwaAMAfJAYESUOXI6ffCgDs2fZ1LRFewbaBUiVX2qmInTjtTdViFy7sI5MwEAAACA/EcZAuSB8g0bya9jJ5OcUmNZHeJQq0p1qxDxLVvBTJw2JG62ChEAAAAAKCiUIUAeubw6ZM/xE+o0f7H+sGadju3Yoazly6x5UdcwoJ71lJkyJcuYidOquLV6ZtpLJgEAAABA/qIMAfKIb6vWqtCipU5evKjsH/KOY8c1KSFJaTHROd8ANQ9ponHhI02yW7xnmV6cOc4kAAAAAMg/lCFAHnKsDmlR0Vd1ype38qSERB3duF5H16+zMqT2NdpYK0RyM2fHQo2d945JAAAAAJA/KEOAPFSpcxeVb9BAg6rlPD0l5fQZxSQlK5XVITZd63TS6NtHmGQXu3mW3l74gUkAAAAAkPcoQ4A8FhgxQP2CgxRarqyVJ8Un6fDK5TqxY7uVkaN3w1v07K1/Nclu0oYYfbD03yYBAAAAQN6iDAHyWJUePVW2enUNCgu18oGTJzUrJU0p0TxZ5kr9mtymJ7s/apLdF2v+p3+v/NIkAAAAAMg7lCFAPgiKHKCBYSGqUibnySmTExKVuWiBTscdsDKcBrYM15+7PmSS3ccrvtDEtd+YBAAAAAB5gzIEyAdV7+in0lWralBYzt4hjifLLErPYHXIz/hd20F6qOPvTLL7+3cf65uN00wCAAAAgN+OMgTIJ47VIYOqhap8yZJWdjxmN33mdJ1JTbEy7P7Y6T6rFMnNmwve1/Stc00CAAAAgN+GMgTIJ4ERkfKuWNEqRBw2Hj6ilZlZSuPJMj/LcbvMnS37m2T3ypw3NW/nYpMAAAAA4MZRhgD5pFjJUgqMiLJulSlVPOeP2qT4RKXGTNX5o0esjKsN6/5n9Wt6m0l2I2e8pqX7VpkEAAAAADeGMgTIR47VIX7lyv24d8il7GxlX7zI6pBf8Wzvv6pXg24m2Y2IHa01B9ebBAAAAADXjzIEyEclfSooICJKf6lbW/9u11rvtGpuzR2rQy6dPWsdI3dj7nhGXet0MsnpUvYlqxDZnLzNTAAAAADg+lCGAPksKDLK+tqwgo+KWUfShRMnlBrL6pBfMy58lNpXb22S0+nzZzQ8drR2pe01EwAAAAC4dpQhQD4r7V9VAX2v3hQ0NXqKOcIvGRs+Si1Cm5jkdOTUUQ2fNlpxmfFmAgAAAADXhjIEKACBZnXIT507dEhp02JNws/xKlVGY/uPUoOAumbilHYs3VohkvrDVwAAAAC4VpQhQAEoW626qvToZR1vP3ZMD65Zp6mJyUqJYXXItfAtW8FaIVKzcjUzcYo/nGgVIodP8YQeAAAAANeGMgQoIJdXh3yXfkg7jx3XGzt3K2HvXmXMnWPN8csCfPytQiSoQoCZOO1O32sVIqfPnzYTAAAAAPh5lCFAASlfv4Eqdb5J7StXMhNpckKS9WQZXJtqfqFWIVKpnJ+ZOG1J3m4VIpcuXTITAAAAAMgdZQhQgAIjItXKr6LaVcr5x7yjDEnfsV1ZS5dYGb+uXtXa1lNmvMuUMxOn7w9u0JurPjAJAAAAAHJHGQIUoAotWsq3dRsNDAu18pmLF1kdcgOaBDfUuP6jVKJ4CTNxWpe8SS9Mf9UkAAAAALgaZQhQwALDI9XFv7Ia+1awsqMMObp5k46s/d7KuDatq7WwVojkZv6u7/Ty7DdNAgAAAAA7yhCggPl17CSfRo01KCzEylnnzmlyQqLSWB1y3TrXaq9X+j1nkt2MbXM1fsE/TAIAAAAAp2JxcXHZ5vhHEydO1ODBg00qPElJSQoJyfkHY2FyhfNwlZ8F14bdjZ7H6TWrdGTChxq88nsdOHlSoeXKanKn9qo84jmVrlPXfNe1c4WfR7t27TRkyBDrVdCWHFypf37/qUl2fev10u+aDTSp4Lj7NZrXXOGzg/fEjmvDjvfFiWvDjmvDzhXOg2vDjvOw43cOJ87D7qprIzsXH330kTkqXI6ixhW4wnm4ys+Ca8Put5zHpiF/yH66QT1HGWm9nmvUIHv3y6PNf3t9XOHnERQUlD1+/HiTCt7UjdOzO4zvnetrwvLPzXcVHE+4RvOSK3x28J7YcW3Y8b44cW3YcW3YucJ5cG3YcR52/M7hxHnYXXltcJsMUEgCIiIVGRqsAK8yVnbcKpO5eJFO7d9nZVyfyOZ36LGbh5pk9++VX+qL1V+bBAAAAKCoowwBCknA7X1VJjDoxyfL7D5+QgvTM5QSPcXKuH73tBmgu5pEmGT3wbJP9b/1MSYBAAAAKMooQ4BCFBQZpYFhISpfsqSVE06eUsbsWTqbnGxlXL/IBrfr9+3vNsnunUUfKGbzTJMAAAAAFFWUIUAhCoiIUjm/SnqvVXP9pW5t/b5mdWueEsPqkN/i4S4P6u7WUSbZjZv3rmbvWGASAAAAgKKIMgQoRMWKF7dWhzSs4KN7q4eZqZQaE61zWVkm4UY83u1Pimh2h0l2o2e+rkV7lpkEAAAAoKihDAEKWWBElIqX8TLJyM5WWsxUE3Cjhvd6TH0a9zTJ7tlpL2nlge9NAgAAAFCUUIYAhayEt7cCIyJNckqNjdbF06dNwo0aedvfdEu9m0yyGxE7WusTNpsEAAAAoKigDAFcgGN1yGWbjhzVF3HxunjqlFJZHZInXu33vDrXameS07mL5zU8drS2pew0EwAAAABFAWUI4AJKV6migP45j4QdtXWHPti7X+N27FZaTLQ1w283NnyUWoc1N8npxNkTGjFtjPYdOmAmAAAAADwdZQjgIi6vDmns62N9jUlK1sGkJFaH5JGSxUtahUiToIZm4nToRKa1QiTxCI80BgAAAIoCyhDARZQNC5N/71s1KCzUTKRJCYlKjaYMySvly3hbhUgd/5pm4pR0JMUqRBzFCAAAAADPRhkCuJDAiAFqXtFXnatUtvKkhCSlxB1QxpxZVsZvV9nbT2P7j1KYX4iZOO0/FGcVIsfPnDATAAAAAJ6IMgRwId5166rSTV01MCznH+qXsrNzChFWh+SpkIpB1gqRqj5VzMRpe+ouqxA5f/G8mQAAAADwNJQhgIsJihyg9pUrqbVfRStPik9U5u5dyvxukZWRN2pVrq6x/UeqglfOHi0/tSFxs1WIAAAAAPBMlCGAi/Fp2kwV27bToGo5e4ecunjRKkRSebJMnmsYWF/jwkepTMkyZuK08sD3embaGJMAAAAAeBLKEMAFOZ4s09W/ihr7VrCy41aZo1s268ia1VZG3mkR2tQqRHKzeM9yjZ71ukkAAAAAPAVlCOCCKrZrL58mTTXI7B2Sde6cJifwmN380r5Ga+uWmdzM3r5AY+e+YxIAAAAAT0AZArgox+qQ3oEBql3e28qOx+we+X6Njm3ZbGXkrZvrdtboO0aYZBe7ZZbeWfShSQAAAADcHWUI4KIq39xN3rXraFBYzt4hyafPaM/xE0pjdUi+6d3gFj3T+wmT7P63PlofLP23SQAAAADcGWUI4MICIqLUPyRItwUFqHlFX9X1Ka/MJd/p5J495juQ1/o37aMnuz9qkt0Xa/6nT1d9aRIAAAAAd0UZAriwqrf1kVdwiEY1bqgP27Q0Uyk1ltUh+Wlgy3A9etNDJtlNWP6Fvlz7jUkAAAAA3BFlCODiAiIizZFTxpzZOpOYaBLyw33tBumhjr8zye4f332sKRu/NQkAAACAu6EMAVxcUOQAlapUySSnlOgp5gj55Y+d7tO9bQeaZDd+wT80fetckwAAAAC4E8oQwA0ERUSZI+nAyZPaevSY0qbF6Hxmppkiv/yl6x91Z8v+Jtm9MudNzd/1nUkAAAAA3AVlCOAGHBupFi9bVofPndP9q9ZqyPfrtTbrMKtDCsiw7n9W3ya3mmT3wvRXtXTfSpMAAAAAuAPKEMANlChbVkGRUfIuWVIXsrOt2eSEJKXGROvCyZNWRv567tYn1avBLSbZjYgdre/jN5gEAAAAwNVRhgBuIjA8SmVKlNCdYSFWXpJxSFsz0pUWw5NlCsqYO0aoa+2OJjldys7W8NjR2py0zUwAAAAAuDLKEMBNODZRdTxZZqApQxwurw7JvnTJTJDfxoaPUvsarU1yOn3utFWI7ErbayYAAAAAXBVlCOBGAiOiVK1cOd0eFGjl2Slp2pOUpFML51sZ+a9YsWJWIdI8pLGZOB05fdQqRA5mJZgJAAAAAFdEGQK4Ea/gEPnf1ueK1SGJOrWAMqQgeZUsYxUiDQLqmolT2vF0qxA5dIon/QAAAACuijIEcDOO1SENKvioW1V/K09NTFZyYoLSZ82wMgpGxbK+ViFSo1I1M3FyrAwZv+Kf1koRAAAAAK6HMgRwM96166jyzd3sq0Pik5QazUaqBS3Ax98qRIIqBJiJU9yRBGuFiGMvEQAAAACuhTIEcEOBkQPUyq+i2lXys7LjVpn0PbuVuXihlVFwqlcK1bjwUarknfNe/JTj6TKOQsTxtBkAAAAArqNYXFzcVb+lT5w4UYMHDzap8CQlJSkkxPm/fhcWVzgPV/lZcG3YFeZ5ZL37lhYsXKS/bdpi5aG1a2pozx6q8szzVi5o7dq105AhQ6xXYSqs92R35j69uvQdnblw1kyc2gS30FOdHjWpYPHZ4cTnhh3Xhh3vixPXhh3Xhp0rnAfXhh3nYcfvHE6ch91V10Z2Lj766CNzVLgcRY0rcIXzcJWfBdeGXWGex5Hv12Sv7Nktu4lvBUehme1XurSVs1YsN99RsIKCgrLHjx9vUuEpzPfk+4Prszu/1Se7w/jeV72e//YV810Fi88OJz437Lg27HhfnLg27Lg27FzhPLg27DgPO37ncOI87K68NrhNBnBTvm3aqkKz5rqrWqiVm/hWsL6mxkZbX1Hw2lRrad0yk5v5u77TK3PeNAkAAABAYaIMAdyY48kyPQOqanmPm/V68ybW7Oi6tTq6cYN1jILXuVZ7vdz3OZPspm+dq/EL/mESAAAAgMJCGQK4sUo3dZV33XoqXqyYmeRIi2F1SGHqUb+rHm37oEl2UzZ+q39897FJAAAAAAoDZQjg5hyrQ66UtXypTuzaaRIKQ9fqHfW3nv9nkt2Xa7/Rx8u/MAkAAABAQaMMAdycf+9bVTIw0CQnVocUvqjmffVYt6Em2f171Zf6Ys3/TAIAAABQkChDAA9Qrnsv6+uGw0fUaf5ijdyyXRnz5+p0/EFrjsJzT+sBGtr59ybZfbD03/rfekorAAAAoKBRhgAewLt7D5WuUkVJp0/L8ZzdeWnpWpaRqVRWh7iEBzsM1u/b32OS3TuLPlTsllkmAQAAACgIlCGAh3DsHdKtqr/KFM/5Yz05IVFp38bqXEa6lVG4Hu7ygO5qFWmS3di572j29gUmAQAAAMhvlCGAh3CUIb6+vhoYFmrlNVmHtf7wEaVET7UyCt8TtzysiOZ3mGQ3etbrWrxnuUkAAAAA8hNlCOAhipcpo6DIARpYLcRMHKtDkpQaM1UXTxw3ExS24T0fU59GPUyye2baGK088L1JAAAAAPILZQjgQQIiIlW1bFlFhQZbeXF6hnZmZbE6xMWM7PO0ute7ySS74bGjtSFxs0kAAAAA8gNlCOBBSvlWzFkdYm6Vcbi8OuTS+fNmAlfwSr/n1almO5Oczl88bxUi21N3mQkAAACAvEYZAniYwIhI1fAup9uCAqw8IzlVB1LTlBbLk2VczdjwUWod1twkp+NnTliFyL6MA2YCAAAAIC9RhgAepkxgkKre3lcDw366d0iitToErqVUiZJWIdI4qIGZOB06kanh00Yr6UiKmQAAAADIK5QhgAdyrA5pVKGCuvpXsbLjVpnkhASlTf/WynAd5ct4W4VIHf+aZuLkKEIcK0QcxQgAAACAvEMZAnigcjVrqfItPa5YHZKktFhWh7iiKt6VrEIktGLOxrc/te/QAasQOXH2hJkAAAAA+K0oQwAP5Vgd0qaSn/VyOHT2rE7FxenQgvlWhmsJ8Q3SuPBR8i+fs5rnpxybqToKkXMX2QQXAAAAyAuUIYCH8mnUWH4dOunvrZpbr+cb5exLkRI9xfoK11OrSg2rEKng5WMmTusTNmtE7GiTAAAAAPwWlCGABwuMjLK+Xl4d4nBy104dXrHcJLiahoH1rEKkdMnSZuK08sD3evbbl0wCAAAAcKMoQwAP5tuqtSq0aGmSE6tDXFuL0KZWIZKbRbuXafTM100CAAAAcCMoQwAPFxSRszrkp45t3KCj69eZBFfUoUYbjQ0faZLd7B0LNG7euyYBAAAAuF6UIYCH8+vcReUbNLSOv0s/pP9bv0lbjx5TagxPlnF1N9fprBdvH26SXczmmXpn0QcmAQAAALgelCFAEeB4sozDlMQkrc06rHE7duvwyhU6vmO7NYfrurVhdz3T+68m2f1vfYw+WPapSQAAAACuFWUIUARU6dFLZavXUMcqlay898QJzUtLVxqrQ9xC/6a36a+3PGKS3Rerv9a/V31pEgAAAIBrQRkCFBGO1SF3hYWqYulSVp4Un6hDCxfoVNwBK8O1DWoVoUe7PmSS3cfLv9DEtWyKCwAAAFwryhCgiAjo219lAwI1KCzUyo59Q5ZmHGJ1iBu5r+0g/aHjvSbZ/f27CZqy8VuTAAAAAPwSyhCgCAmIiNSgsBCVLVHCypMSkpQ2Y7rOpqVaGa5vSKf7dW/bgSbZjV/wD83YNtckAAAAAD+HMgQoQoIiB8jXz08Dw0Ks7NhM9fsfXjxZxr38pesfNaBFf5PsXp79pubv+s4kAAAAALmhDAGKkGIlSyowIkqDqoWqmJlNSkhUavRUXTh61EzgDp7q8Wf1a3KrSXYvTH9Vy/avMgkAAADAlShDgCImMHKAqpQrZxUiDssyMrU5K0upsawOcTfP3vqkejXoZpLd8NjR+v7gBpMAAAAA/BRlCFDElPTxsW6XuXyrjMOk+CSlRE/VpXPnzATuYswdz6hrnY4mOV26dMkqRHZn7jMTAAAAAJdRhgBFkONWmZCyZRUeEmTl+Wnp2pmSat0uA/czNnyU2lVvZZLT6fOnNX7FP7U7fa+ZAAAAAHCgDAGKoNJVq1qP2r38mF2H+FOnuFXGTRX74T+OQqR5SBMzcTp29ri1QuRgVoKZAAAAAKAMAYoox+qQWuW9NaZpIz1Ys7p6BFTVuYwMpU2LNd8Bd1K2lJdViNSvWsdMnFKPpVuFSNrxdDMBAAAAirZicXFx2eb4RxMnTtTgwYNNKjxJSUkKCXHua1BYXOE8XOVnwbVh5+7nceSTCTq9coVJOUoGBsn/5ddMunbt2rXTkCFDrFdhKurXxqFTWXpt2btKOpZiJk41/arp2S5PyKdMeTMpOK7w2cHnhp2rnAd/r9i5wnlwbdhxbdi5wnlwbdhxHnb8zuHEedhdeW0Uy/6BOf7RhAkTNHToUJMKz8GDB1W9enWTCo8rnIer/Cy4Nuzc/TxO7Nyprf/3iElOtZ9+Rv69ept0bYKDgzVs2DDrVZi4NqT4rEQ9PuUZa0XIlZoFN9Y7d75qrSQpSK7w2cG1Yecq58HfK3aucB5cG3ZcG3aucB5cG3achx2/czhxHnZXXhvcJgMUYeUbNFClzl1MckqLYe8Qd1atUqjGhY+SX7mKZuK0OXmbRsSO1qXsS2YCAAAAFD2UIUARFxARaY6khWkZ+uzAQZ3YvUtZy5aaKdxRvap1rELEq+TVK0DWHFxvFSIAAABAUUUZAhRxvi1aybdVa+v4uS3b9NG+A1YhksrqELfXNLiRnur0qIoXu/qjfum+VRo54/r3hgEAAAA8AWUIAAVGRllfG/tWsL5OTkjS0U0bdXTdWivDfTWp2sBaIZKbeTsX65U5b5oEAAAAFB2UIQDk16GTyjdspEFhObs8Z507p8kJiUqJnmJluLcutTvo5b7PmWQ3fetcvbngfZMAAACAooEyBIAlKDJKvQMDVNPb28qO1SFHVq/Sie3brAz31qN+Vz1/W+5P+vlm4zT9/buPTQIAAAA8H2UIAEvlW3qoXM1aGmhWhySeOq3pyamsDvEgdzTurb/1/D+T7Cau/UYfr/jCJAAAAMCzUYYA+FFgRKQiQ4MV4FXGyo5bZTIXL9LJffusDPcX1byv/u/m3J+9/++VX+qLNf8zCQAAAPBclCEAflT19r4qExikgWGhVt59/IQWpmcoLZYny3iSwW0GaGjn35tk98HSf2vShhiTAAAAAM9EGQLAxrE6xHGrTPmSJa3s2DskfdZMnUlOtjI8w4MdBuv+dnebZPf2wg8Uu3mWSQAAAIDnoQwBYBMYESVvv0o/Pllm4+EjWp2ZpdQYVod4mkduelB3tY40yW7svHc0Z8dCkwAAAADPQhkCwKZYiRIKsFaHhKp4sWLWzLE6JC02WucPH7YyPMcT3R5WRLPbTbJ7ceY4Ld6zzCQAAADAc1CGALhKUOQAVfIp/+OTZZYfylT2pUusDvFQw3s9rj6Neppk98y0l7Qqbq1JAAAAgGegDAFwlRLe3goMj9SfatdUE98K6hccZM1To6fq0pkz1jE8y8g+f9MtdbuYZDc8drQ2JG42CQAAAHB/lCEAchUYOUBlS5TQx21b6dlG9a3ZxdOnWB3iwV7t/4I61WxnktO5C+esQmR7yi4zAQAAANwbZQiAXJWuUkWB4REmOaVEU4Z4srHho9QqrJlJTsfPnNCIaWO0/1CcmQAAAADuizIEwM8KDI8yR07nszJZHeLBSpUoaRUijYMamIlTxolD1gqRpCM8ZhkAAADujTIEwM/yCguTf+9bTfrhH8Nnzyrr3DmlxkSbCTyRT5nyGhc+SrWr1DQTp8QjyRoeO0aZJ7PMBAAAAHA/lCEAflFgRM7qkNWZWeq/dKUeWL1OGXFxypgzy5rDM1X2rqRx4SMVWjHYTJz2HTpgrRA5fvaEmQAAAADuhTIEwC/yrltPlW7qKq8SJazsWB0yKSGR1SFFQEjFYGuFiH/5KmbitC1lp0bEjtb5ixfMBAAAAHAflCEAfpVjdUjzir7Wy2FSQpKO7N6lzCWLrQzPVatKDY3tP1I+XuXNxGl9wmarEAEAAADcDWUIgF9VoVlzVWzTVoPCQq187Px5qxBJY3VIkdAoqL61QqR0ydJm4rTiwBo9O+0lkwAAAAD3QBkC4JoERESpe4C/6vv4WHlSfKKObdmsI2tWWxmerWVoM6sQyc2iPcs0ZtYbJgEAAACujzIEwDXxa99BPo2baFC1ECunnz2rbxKSlBrL6pCiokONNnqt/wsm2c3aPl/j5r1rEgAAAODaKEMAXDPH3iG3BwWqunc5K0927B2yZrWOb9lsZXi+bnW76MXbh5tkF7N5pt5Z/KFJAAAAgOuiDAFwzSp3u0XlatX+ce+Q+FOnND05VSnRU62MouHWht01otcTJtn9b120Plj6qUkAAACAa6IMAXBdgiIHKCo0WAFeXlZ2PGY3a+l3quVVxsooGsKb9dFfuz9ikt0Xa77Wp6smmgQAAAC4HsoQANfF/7Y+KhMcrEFhOXuH7Dl+QvPT0nV7JT8ro+gY1DJCj9z0B5PsJiz/XBPXTjEJAAAAcC2UIQB+UYcOHVSsWLEfXw5BEQM0qFqoKpYqZeVJ8Unq7ucrr5MnrIyi4/52d+kPHe81ye7v303Q1E3TTQIAAABcB2UIgJ/lKELi4+OVnZ1tvf72t78pODhYgRGRKle5su6qlrN3SEi5nFtmgg/GWV9RtAzpdL8Gt7nTJLs35v9dM7bNNQkAAABwDZQhAHI1d+5crV69WkuXLjUT6fXXX1dycrJUrJgCIqL0QM3qmntzF41q3ND674Pi43Qu85B1jKLl/24eojtb9DfJ7uXZb+rA+USTAAAAgMJHGQIgV/v371dQUJBq165tJnaB4ZEqUbasfEqVNJMcqTHR5ghFzbAef1bfJr1Nslt8ZrWW7VtlEgAAAFC4KEMA5MpRhlSrVk1PP/30j/uFOG6RuaxEuXLW6pArpcVM1cVTJ01CUfPcrcPUq0E3k+yGx47W2viNJgEAAACFp9hHH32UbY5/tGTJEnXt2tWkwpOZmanKlSubVHhc4Txc5WfBtWHnqefxhz/8Qc8++6zeeOMNa58Qx+0xDnfddZd124zjVpndu3dr2exZavRtjPXf/VRqk2ZKb9jYpILFtWFXWOex4PQKxV9IMcmpVLFS6l22s6qWKPhz4tqwc5Xz4O8VO1c4D64NO64NO1c4D64NO87DzhWuD94TO1e9NoplO3ZFvMKECRM0dOhQkwrPwYMHVb16dZMKjyuch6v8LLg27Dz5PBwrQhwfGKtWOW9t2Ldvn+rUqaO9e/f+ePtM3Pt/V2rMVC3LyNSY7Tt0Z2iI/ty6pVpPmmrtLVLQuDbsCus8LmVf0l+nPKc1B9ebiZNfuYp6Z8Arqle1jpkUDK4NO1c5D/5esXOF8+DasOPasHOF8+DasOM87Fzh+uA9sXPVa4PbZADkqmfPnubolwVG5twqs/XYMR0/f0GfHjioPUnJVkGCoqt4seIaGz5KzYKvXiF0+NQR65aZ+Cw2VQUAAEDhoAwBkKvevXtbj9X98MMPzUS699571b59e9umql7BIfK/tY+6+VcxE2lyQqJSoqeYhKKqbCkvjQsfpfoBV68AST2WruHTRltfAQAAgIJGGQLgZzn2BhkzZsyPG6g6ypGf3jZzWVBklBpU8FG3qv5WnpqYrIS4OKXPmmFlFF0Vy/lahYhvcR8zcYrLjNeI2NE6cvqYmQAAAAAFgzIEwC9yFCKOrYUcL8dxbsrVrqPlR49rYFiImUiT45O4VQaWAJ+q6lG2owIrVDUTp13pe61C5PT5M2YCAAAA5D/KEAB5YmbWYbXyq6h2lfys7LhVJn33bh1atNDKKNocK0McK0Qcm6deaVPSVqsQyf7hPwAAAEBBoAwBkCd2nDqtw/5VNTAs1MpnL13S5IQkpcWyOgQ5HE+PGdt/pMqWKmsmTo6nzjgKEQAAAKAgUIYAyDPJ1Wqoi39lNfGtYGVHGXJ061YdXrXSykCzkMbWCpHixa/+62fJ3pUaOeM1kwAAAID8QxkCIM8c8a+qCk2b/bh3yOFz53JWh7B3CH6ibfWWViGSm3k7F+vVOW+ZBAAAAOQPyhAAeSogIkq9AwNUy9vbyo4y5Mi6tTq2aaOVAYcutTropb7PmmT37dY5Gr/gfZMAAACAvEcZAiBPVe56s7zr1tXAajmrQ5JOn9b05BSlxkRbGbisZ/2b9fxtw0yym7Jxmv6x5F8mAQAAAHmLMgRAngsMj1JESLACvLysfOjsOWUtW6KTu3dZGbjsjsa99VSPv5hk9+X3k/Xxii9MAgAAAPIOZQiAPOd/623yCg3Vx21b6rVmjfVAzerWPCWavUNwtQEt+un/bh5qkt2/V36p/3w/ySQAAAAgb1CGAMgXQZED5F+mjLpV9TcT6dD8uTqTEG8S4DS4zQAN6Xy/SXb/XPKJJq2PMQkAAAD47ShDAOSLgP4RKlW5sklOrA7Bz/lDh3t1f/u7TbJ7e9EHmrZltkkAAADAb0MZAiDfOFaHXCnt21idzUg3CbB7pMuDuqtVhEl2r819W3N2LDQJAAAAuHGUIQDyTWBEpEqaR+zOTEnVM5u36fC5c0rjyTL4BU/c8ogimt1ukt2LM8fpu73LTQIAAABuDGUIgHxTvIyXAiKirONP9sdpcXqGXt+5R6kxU3Xh+HFrDuRmeK/HdVvDHibZjYgdo1Vxa00CAAAArh9lCIB85VgdUqx4cXU0+4c4CpFthzKVGsvqEPyyUbc/rVvqdTHJbnjsaG1M3GISAAAAcH0oQwDkq1IV/RQYEaVB1ULMRJqUkKi0mKnKvnDBTIDcvdrvBXWs2dYkp3MXzlmFyI7U3WYCAAAAXDvKEAD5LiAiUtXKldMdwYFWnp2Spl3JyUpl7xBcg7Hho9QqrJlJTsfOHLcKkf2H4swEAAAAuDaUIQDynVdQsKr2uUODwkLNRJocn6SUmCkmAT+vdIlSGhc+So0C65uJU8aJQ1YhknQ0xUwAAACAX0cZAqBABEZGqZ5PefUIqGrlmKRkHYw7qPQZ060M/JLyZcpbhUjtKjXNxCnxSLJGxI7WoZNZZgIAAAD8MsoQAAWiXM1aqtytuwaF2fcOSYlmdQiuTZXyla1CJKRikJk47c04YBUiJ86eNBMAAADg51GGACgwQZFRalbRV52r5DxZZlJCkpL37NahBfOtDPwaRxEyrv8oqxi50raUnVYhcv4iG/MCAADgl1GGACgw5Rs1ll/HThpoVodcys62CpHUmKlWBq5Fbf+a1goRH6/yZuK0LmGTVYgAAAAAv4QyBECBCgyPVPvKldTar6KVJ8UnKmPbVmWtWG5l4Fo4NlN1FCKlSpQyE6cVB9bouW9fNgkAAAC4GmUIgALl27qNKrRoqUHVcp4sc+riRR08eUpprA7BdWoZ2swqRHKzcPdSjZn1ukkAAACAHWUIgAIXGBGprv5VNLR2Td0ZFqIGFXx0dMN66wVcj4412+q1/iNNspu1fYHGzX/PJAAAAMCJMgRAgavU+SaVr99AD9asrmH165qpWB2CG9KtbmeN6vO0SXYxm2bonUUfmgQAAADkoAwBUCgCIiLNkZNj35ATO3eYBFy72xr10IjeT5hk97/10fpw2WcmAQAAAJQhAAqJf8/eKlutuklOPFkGNyq8aR89ccvDJtl9vvorTd0xwyQAAAAUdZQhAAqNY++Qy2alpOqbhCQdWjBfpw/GmSlwfe5qFalHbvqDSXaTtsXqq3VTTAIAAEBRRhkCoNAE9AtXaf+qOnr+vMZs26k3d+3R/LR0pUTzD1bcuPvb3aU/dLjXJLv3Fk/Q1E3TTQIAAEBRRRkCoFAFRUapfMmSqliqlJUnxScpfcZ0nU1LszJwI4Z0vl/3trnTJLs35v9dM7fNMwkAAABFUbG4uLhsc/yjiRMnavDgwSYVnqSkJIWEhJhUeFzhPFzlZ8G1Ycd5OLVr105DhgyxXtflwgWlPvm4Ptm6TR/vz7k95s0WTdXrh+uswqB7rHw9eE/sXOU8Cuuz498bJmruvsUm2T3efqg6hrUxqeBwbdjx94qdK5wH14Yd14adK5wH14Yd52HnCtcH74mdy14b2bn46KOPzFHhchQ1rsAVzsNVfhZcG3ach1NQUFD2+PHjTbo+CZ9/mj335i7ZpYoXd5Sz2R0qV8pedVvP7HNHjpjvuHa8J3auch6F+dnx8uzx2R3G9871tWzfKvNdBYdrw46/V+xc4Ty4Nuy4Nuxc4Ty4Nuw4DztXuD54T+xc9drgNhkAhS4wIkq+5cpqUFhOY7wqM0sbDmUqjSfLIA88d+sw9ax/s0l2w2NHa238BpMAAABQVFCGACh0JStUUEB4pAaaMsRhckKiUmOjdencOTMBbtxLfZ9Vm+AWJjldvHTRKkS2puwwEwAAABQFlCEAXIJjdUiAl5ciQoKtvDAtQzuSU5TK6hDkkSc7PqK21Vqa5HTq3GmrENmTvs9MAAAA4OkoQwC4hDIBAQro208DqzlXh0xKSFJaTLRJwG9TvFgxjQsfpWYhjc3EKevkYasQOZiVaCYAAADwZJQhAFxGQHiUanl7q3dggJWnJ6dof/xBpX0ba2XgtypbuqxViNSrWttMnFKOpWlE7GilHc8wEwAAAHgqyhAALqNcjRqq0qPnFXuHJCklmltlkHcqlvW1CpHqlcLMxCkuK94qRI6cPmomAAAA8ESUIQBcSmDkADXxraDOVSpbeVZKms4kxOvQ/LlWBvJCYIUAqxAJ8KlqJk470/ZYhciZC2fNBAAAAJ6GMgSASylfv4H8OnXWn2rXVIBXGd0elHPLDKtDkNccK0MchYhjpciVNiVtswqR7OxsMwEAAIAnoQwB4HKCIgeork95xXTpqMfr1bFmJ3fvUtayJdYxkFfqB9SxChHHXiJXWh23zipEAAAA4HkoQwC4nAotWsq3VWuTnFJ5sgzygePpMo5CxPG0mSst2bdSI2eMNQkAAACegjIEgEsKjIgyR07HNm3UkXXfmwTknbbVWmps+CiT7ObtXKRX5rxlEgAAADwBZQgAl+TXsZN8GjYySUo7c1aO3RvSWB2CfHJT7Y56qe+zJtlN3zpHby583yQAAAC4O8oQAC4rwKwOmZ6coohlK/Xg6nU6vGqljm/bZs2BvNaz/s167tZhJtl9s2Ga/rHkXyYBAADAnVGGAHBZVbr3ULkaNX/cy2HX8eOanpyq1FieLIP807dJbz3V4y8m2X35/WT9a8V/TAIAAIC7ogwB4NIcq0NuDwq0HrPrMDkhUZmLFurU/v1WBvLDgBb99Jebh5hk98nK/+o/ayaZBAAAAHdEGQLApQXc0VdlAgI1MCzUyruPn9DC9AylxrA6BPnr3jZ3amjn+02y++fSTzR5Q6xJAAAAcDeUIQBcnuPJMgPDQlS+ZEkrT05IUvqsGTqbkmJlIL882OFe3d/uLpPs3lr4T03bMsskAAAAuBPKEAAuLzAySuX8/DQoLMTKGw8f0erMLKVET7EykJ8euekPuqtVpEl2r819R3N3LjIJAAAA7oIyBIDLK1aihIKs1SGhP26m6lgd4rhV5vyRI1YG8tMTtzys8KZ9TLIbNWOsvtuz3CQAAAC4A8oQAG7BcauMX3lv63YZh+WHMrXlyBGlsjoEBWRE7yd0W6MeJtmNmDZGq+PWmQQAAABXRxkCwC2UKF9eQZE5e4dcNjk+Z3XIpbNnzQTIX6P6PK1udTubZDc8drQ2Jm4xCQAAAK6MMgSA2wgMj1JI2bLqFxxk5Xlp6drteLIMq0NQgF7rP1Ida7Y1yenshbNWIbIjdZeZAAAAwFVRhgBwG6X9/RXQP9y2OiQmKVmpMdEmAQVjXPgotQxtZpLTsTPHrVtm9mceNBMAAAC4IsoQAG7FsXdIXZ/y6mtWh/iVLq1zmYeUGkshgoJTqkQpqxBpFFjfTJzSjx/SiNjRSjrCo58BAABcFWUIALdSNqya/Hv11nON6mtety76Q83q1jyN1SEoYD5e5a1CpFaVGmbilHA4ySpEMk8eNhMAAAC4EsoQAG4nICLK+lq+ZEnrq8PpxARlzJ1tElAwqpSvbBUiIRVzVir91N5DB6xC5MTZk2YCAAAAV0EZAsDtlK9XX5W63GSSE3uHoDCEVgy2ChFHMXKlrSk7rELkwqULZgIAAABXQBkCwC0FRQ4wR04n9+zWmbXfmwQUnNpVamps/5EqX6a8mTitS9hkFSIAAABwHZQhANyST7Pm8m3dxjqOTkxW1PJVWpSeoZML51szoKA1DmpgrRApXaKUmTgt379Gz377skkAAAAobJQhANzW5dUh32UcUsrpM/rHnn06t3uXjn6/xpoDBa1VWDONDR9lkt2i3Us1ZtYbJgEAAKAwUYYAcFsV23eQT+Mm6l7V38rJp88oJilZKdFTrQwUho412+rV/i+YZDdr+3x9vO6/JgEAAKCwUIYAcGuBEVHqHxKkkLJlrTw5PklHvl+tY1s2WxkoDLfU7aJRtz9tkt2CA0v07uKPTAIAAEBhoAwB4NYqd7tF3rVra1C1ECvvP3lSs1PSlMaTZVDIbmvYQ8N7PW6S3dfrpurDZZ+aBAAAgIJGGQLA7QWER2lQWKiqlClt5UkJicpcslgn9+6xMlBYIprdriduecQku89Xf63PVn9lEgAAAApSsbi4uGxz/KOJEydq8ODBJhWepKQkhYTk/K+9hckVzsNVfhZcG3ach1O7du00ZMgQ61UYMp59Wv9es1Yf7N1v5deaNVafyChVfPAhKxc0rg07V/jsKMyfRezOWfpqa+6rle5rNlB31OtlUsHh2rDjz6wT14Yd14adK5wH14Yd52FX1H/n+CnOw+6qayM7Fx999JE5KlyOosYVuMJ5uMrPgmvDjvNwCgoKyh4/frxJBS956jfZi265Kbt8yZKOgje7pV/F7JU9u2WfTkww31GwuDbsXOGzo7B/FhOWf57dYXzvXF9TN04331VwuDbs+DPrxLVhx7Vh5wrnwbVhx3nY8TuHE+dhd+W1wW0yADxCUESUfKpU0aCwnNZ5w+EjWpWZpVT2DoGLGNLpfg1uk/M46Cu9Pv89zdw2zyQAAADkN8oQAJ6hWDHryTIDq4Wq5A/HDpPiE5UaM1XnszKtDBS2/7t5qHrX7maS3Uuzx2vh7iUmAQAAID9RhgDwGIGRUfIrX16DqoVaeWVmljYePsLqELiUP7QcrDsa9zbJ7rlvX9Hy/atNAgAAQH6hDAHgMUqULSfvHr1+vFXGIePcOaVET9HF06fMBCh8z982TD3r32yS3fDY0VoXv9EkAAAA5AfKEAAexbtHTwV4eemD1i30XKMG6hVQVZfOnFFq9FTzHYBreKnvs+pSu4NJThcvXdTwaaO1NXmHmQAAACCvUYYA8CjFfStae4e08KuovsGBZipr7xBlX/UkcaBQjes/Sm2rtzTJ6eTZU9YKkd3p+8wEAAAAeYkyBIDHCYyINEdO5w8fVoqjEAFcSPHixTUufJSaBjcyE6esU4c1Ina04g8nmgkAAADyCmUIAI/jFRIq/1v7mOSURhkCF1S2VFmrEKlXtY6ZOKUcS7MKkbTjGWYCAACAvEAZAsAj/XR1yOSEJL2yfafOJCcrfdZMMwVch1+5ilYhUs0v50lIP3UgM94qRI6ePmYmAAAA+K0oQwB4JO86dVW5azfr+K1dezQ9OVXv79mvtFhWh8A1BVaoahUiAT98vdLOtD0aMW20zpw/ayYAAAD4LShDAHisALM6pF0lP+vr5IREpe3apczFi6wMuJoalatZm6pWLOdrJk4bE7daK0QAAADw21GGAPBYFZo2U8W27TUwLOfWg7OXLlm3zFhPlgFcVP2AOhrbf6TKlvIyE6fVB9dZT5kBAADAb0MZAsCjBUVGqYt/ZTXxrWBlRxlydOsWHVm9ysqAK2oe0kRjw0epeLGr/5pesneFRs54zSQAAADcCMoQAB7Nt207+TRtpoFhIVY+fO6cVYikRE+xMuCq2lVvZRUiuZm3c7Fenfu2SQAAALhelCEAPF5QRJR6Bwaolre3la3VIevW6vjmTVYGXNVNtTtozB3PmGT37ZbZenPh+yYBAADgelCGAPB4lbrerHJ16mpgtZzVIUmnT2t6cgqrQ+AWejXopuduHWaS3Tcbpun9JZ+YBAAAgGtFGQKgSHDsHRIREqwAr5xNKSclJClr2VKd2L3LyoAr69ukt4b1+LNJdv/9fpL+teI/JgEAAOBaUIYAKBL8e9+msqFhP+4dsuf4CS1Mz1AaT5aBm7izRX/9381DTLL7ZOV/rVIEAAAA14YyBECRERARqUFhIfIpVdLKk+MTlTFvrk4nxFsZcHWD29ypIZ3uN8nOcbvM5A2xJgEAAOCXUIYAKDICwyPl7V9VA8NCrbzxyFHrayqrQ+BG/tDxXt3f7i6T7N5a+E99u3W2SQAAAPg5lCEAipTAiEgNqVVD3ar66/c1q1uztGmxOpeRYR0D7uCRm/6gQS0jTLJ7dc7bmrtjkUkAAADIDWUIgCIlMHKASpQrp9eaNdbDtWuaqZQay+oQuJe/dn9E4c36mGQ3auZYLdm7wiQAAABciTIEQJFSvEwZBUZEmeSUEj1VF0+cMAlwDyN6PaFbG3Y3yW547GitjltrEgAAAH6KMgRAkeNYHaJixUzKkX3uHHuHwC29ePtwdavbxSS74bFjtClpq0kAAAC4jDIEQJFTqmJF2+qQJRmHrM1UU2KmKvviRTMF3Mdr/V9QhxptTHI6e+GstUJkR9puMwEAAIADZQiAIinIsTrkB6szszR801Y9snaD9qekKDWa1SFwT+PCR6llaDOTnI6ePqYRsaO1/9BBMwEAAABlCIAiqUxQkKr2uUM+pUqaiTQ5IYlbZeC2SpcsbRUiDQPrmYlT+vFDViGSfDTVTAAAAIo2yhAARZbjVplGFSro5qpVrPxNQpIS4g8qbcZ0KwPuxservFWI1KpSw0ycEo4kWYVI5sksMwEAACi6KEMAFFnlatVS5Vu6a1BYqJlIk+ITlcbqELgx//JVrEIk2DfITJz2ZOzXiNgxOnnulJkAAAAUTZQhAIq0wPAotfKrqPaVK1l5kuNWmT27dWjhAisD7ii0YrBViFTxzrmuf2pryg5rhcjFbDYLBgAARRdlCIAizadxY/l16KhBYSFWPn/pklWIsDoE7q6Of02NDR8lnzLlzcRpbfxGjV/xT5MAAACKHsoQAEVeQESkOlWprOYVfa08KSFRWdu26vDKFVYG3FXjoAZWIVKqhHOj4Ms2pGzRc9++YhIAAEDRQhkCoMir2LqtKjRvoUHVcvYOOX7+Qs7tMqwOgQdoFdbMKkRys3D3Eo2Z9YZJAAAARUexuLi4bHP8o4kTJ2rw4MEmFZ6kpCSFhOQsXS9MrnAervKz4Nqw4zyc2rVrpyFDhlivwnSjP4sz69fq8D//oQdWr9Ou48dVtUwZxd7UUZWfGq7SDRqa77p2XBt2rvDZUdTfk9VJ6/X2yg9NsutZ62b9sdW9JhUs/l6xc4Xz4HPDjmvDzhXOg2vDjvOw43cOJ87D7qprIzsXH330kTkqXI6ixhW4wnm4ys+Ca8OO83AKCgrKHj9+vEmF57f8LDY/+qfsFxo3cBTE1mtY/brZO0c+Z/7b68O1YecKnx28J9nZM7fNz+4wvneur3cWfWi+q2Dx94qdK5wHnxt2XBt2rnAeXBt2nIcdv3M4cR52V14b3CYDAEZQZJRuDwpUde9yVp6VkqbDK5brxK6dVgbcXZ9GPTS81+Mm2X29bqo+Wv6ZSQAAAJ6NMgQAjCo9e8srrJqG1qop75Il1bFKzmNJU6OnWF8BTxDR7HY90e1hk+w+W/WV9QIAAPB0lCEA8BOO1SHdA/w1v1sX/bFWDWt2aMF8nYqLs44BT3BX60jd0zTSJDvH6hDHKhEAAABPRhkCAD8R0C9cZfyrmuSUFss/DuFZwuv30YMdct9g7t3FHyl60wyTAAAAPA9lCABcISDi6v/FPG36tzqblmYS4BmGdv69Bre50yS71+e/p1nb55sEAADgWShDAOAKgRFRKunjY5J08sIF62tqDKtD4Hn+7+Yhimre1yS7MbPe0MLdS0wCAADwHJQhAHCF4qVLKzA8Z3XI/+IT1XPxMj2/ZbvSYqN14dgxaw54kr/1/D/d0bi3SXbPffuKVuxfYxIAAIBnoAwBgFwERESpWMmSOnb+vJUXpKVrfcYhVofAYz1/2zD1qN/VJLvhsaO1Nn6jSQAAAO6PMgQAclHK11eBEZHqHxJkJtLkhESlRE9VtilIAE/zct/n1KV2B5OcLly6oBGxo7UleYeZAAAAuDfKEAD4GYERAxTg5aWIkGArL0zL0M6UFFaHwKONCx+lNtVamuR08twpPTNtjPZk7DcTAAAA90UZAgA/o0xAgKre0VcDq4WYiTQpIclaHQJ4quLFimtc+Eg1DW5kJk6ZJ7OsFSLxhxPNBAAAwD1RhgDALwiKHKBa3t7qHRhg5enJKToQf1Bp38ZaGfBE5UqXs1aI1PWvbSZOyUdTrUIk/fghMwEAAHA/lCEA8AvKVq+hKj16amCYc3XI5IQkpcZEmwR4Jr9yFa1CpFqlUDNxOpAZbxUiR0/zdCUAAOCeKEMA4FcERkSpiW8Fda5S2cqOMiR57x5lzJ9rZcBTBfkGWIVIgI+/mTjtSNttFSJnL5wzEwAAAPdBGQIAv6J8g4aq1Knzj6tDLmVnW4VIGqtDUATUqFRNY8NHqWJZXzNx2pi01XrsLgAAgLuhDAGAaxAQEaX2lSuppV9FKzvKkMwd25W1fKmVAU/WIKCuxoaPVNlSXmbitDpuLYUIAABwO5QhAHANfFu2sl6XV4ecuHBBMYnJ7B2CIqN5SBNrhUixH/5zpSV7V2jUzLEmAQAAuD7KEAC4Ro7VIbdU9VcLszrE4djGDTq6bq1JgGdrV72VVYjkZu6ORXp1ztsmAQAAuDbKEAC4Ro59Qxz7h3zQuoViunTQXdVynrKRGsvqEBQdXet01Ji+z5hk9+3W2Xpr4T9NAgAAcF2UIQBwHRxPlnEI8HLunXB45Qqd2L7NJMDz9arfTc/e+qRJdpM3xOr9JZ+YBAAA4JooQwDgOlTp0VNlq9cwySkleqo5AoqGfk1u1VM9/myS3X+/n6RPVv7XJAAAANdDGQIA1ykocoA5cspcvFCnDuw3CSgaBrTor790/aNJdv9a8R+rFAEAAHBFlCEAcJ2q3tFXpQMCrOOP98cpYtkqbTpyVKmsDkERdG/bgRrS6X6T7By3y3yzYZpJAAAAroMyBABuQFBEzuqQualpSjtzRh/uO6D0WTN0JiXZmgNFyR863qv72g0yye7Nhe/r2y2zTQIAAHANlCEAcAMCIyJVytdXvQNzVohsPHxEqzKzlBbDk2VQND1600Ma1CrCJLtX576teTsXmwQAAFD4KEMA4AYUK1lSARFRGhgWopLFilmzyQlJSo2ZqvNHDlsZKGr+essj6t/0NpPsRs54TUv2rjAJAACgcFGGAMANCgyPVCVvbw2qFmrlFYcytSHrsFJZHYIi7Jnef9WtDbubZDc8drRWH1xnEgAAQOGhDAGAG1TSx0eBZnXIZZMTEpUWM1XZ586aCVD0vHj7cN1cp7NJdiNiR2tj4laTAAAACkfxY0fOmEMA+HkffvihipnbQeAUEBGpQC8vRYQEW3lhWoa2p6bp5IL5VgaKqrHhI9WhZhuTnM6cP6sR00ZrR+puMwEAACh4xYfdPU0xn23RubMXzAgArvbII4+YI/xUGf+qCugXroHV7KtDTi6YZxJQdI3rP0otQpua5HT09DE9M22MDmTGmwkAAEDBKn7h/EXF/merHKXIrP/tMGMAcLrrrrvUvn17k3CloMgo1fL21m1BOU+WmZ6cqrjkZKVNi7EyUFSVLlla48JHqWFgPTNxSjueYd0yc/zSSTMBAAAoOD/uGXLi2FlNmrBRTw2eptS9pcwUQFE3d+5cHTx4UA888ICZ4EpeYdVUpWfvK/YOSVJK9BSTgKKrgpePVYjUrFzdTJziDydq4emVyjrFE5gAAEDBumoD1cy0kzqwzkvPPzRTK+fHmSmAospRgnz55Zcm4ec4Voc0qlBBXf2rWPmbhCQl7tunjDmzrQwUZf7lq1iFSIhvkJk4ZV06aj1l5uTZU2YCAACQ/372aTJJcUc14bWVevn/5mn98kQzBVCUPP300/rd736n2rVrmwl+jne9+qrUpattdUjG2XNKjZ1qElC0hfmFaGz4KFUpX8lMnLYm79DwaaN18dJFMwEAAMhfxYYP+Tw7bd+v3xbjG3BRIQ3PWl8LSmZmpipXrmxS4XGF83CVn8WSJUvUtWtXkwoP14ZdXp5H27Zt1bJlS+3bt0833XSTkpOTrbnjaTKOTVSzs7OtnJiYqJkzZ1rHDo7ipFevXtarMBXme1I+I121Fi/Qt8kpOnnhou6uFmrND3bsoqOhYdZxQeOzw4nPDbvCOo/0C5mad2a5zmWfNxOnsJJB6lm2k0kFi+vDyVV+FvzOYcd5OHFt2HEedvzO4cR52F15bRT74R822Qn7jmjm19u1auFBM/55rTqH6va7G6p2o5yl4PnJsU9B9epX32Nc0FzhPFzlZzFhwgQNHTrUpMLDtWGXH+fhKDfeeOMNk+zmzJmj3r17m5QjODhYw4YNs16FqbDfk50j/qYj69aalKNC02Zq9Na7JhUsPjuc+NywK8zzWJewSX+d8qzOX7z6SXbd63XVK/2eM6ng8L44ucrPgt857DgPJ64NO87Djt85nDgPuyuvDes2mbDaFfWn5zrp2Xd7qUVH5xLv3DhumXHcOuO4hcZxKw0Az/T6669bq0Auvz744ANr7ji+sgiBU0BElDlyOrZls458v8YkAK3Dmlu3zORm4e4lemn2eJMAAADyh23PkLpNqujxl7uq4c2n1aB5VTPNnWNzVccmq/95d6216SoAQPLr0FE+jRub5JQaw94hwE91qtlOr/R73iS7mdvm6fX575kEAACQ93LdQLVi4AUNf6uH/jyqi2rUv3qjs59aOG2P9Thex2N5HY/nBeCZHn744R/3C8EvCwh3rg757MBBfbB3v46sWa3jW7eYKQCH7vVuUlevtibZRW+aofe+m2ASAABA3vrZp8k4tOkaplH/vFUPPd1eQdUqmGnuZv1vh4bdPU2x/9mqC+fZDR5A0VXllu4qGRqq4+cv6KN9B/RFXLxik1KUGhNtvgPAZbVLVdPwno+ZZPfV2in6aNlnJgEAAOSdXyxDLutyay29+ukd+t3/tVYl/3JmerVzZy8o5rMtVikyZ/JOMwWAose7Ry/5lCqp4LJeVp6ckKjM7xbp1L69VgbgFNH8Dj1xy8Mm2X22+it9vvprkwAAAPLGNZUhl/WIqKfxX4Xrzj82V1nvn38c77EjZ/T1hxv09O++1Xcz9pkpABQd5W66WWWCgjQwLOfxuvtOnNS8tHSlRLN3CJCbu1pF6uEuD5hk9+GyT/X1Ov7sAACAvHNdZYhDsWLSHfc00ptfhavv4EYqXvyHwc/ISDmhz95ao5FDZ2v1NTy2FwA8SVDkAA0MC1HFUjnl8eT4JGXMmaUzyUlWBmD3+/b36MEOg02ye3fxR4rZPMMkAACA3+a6y5DLHCtDBjzUXG9+Ha5eUfXMNHcJ+w7rw1dW6NXH52vjSv4RAKBoCIyIkpefn1WIOGw5elTLD2UqldUhwM8a2vn3uqf1AJPsxs17T7O2zzcJAADgxt1wGXJZxcplNfjPrfXa5311U59aZpq7PVsz9O7zS/TmiMXasTHNTAHAQxUrpkBrdUioShXP+bidnJBkPWb3XFamlQFc7bFuQxXVvK9JdmNmvaFFu5eaBAAAcGN+cxlyWWCoj/7wVHu9+OFtatetmpnmbuv3KXp92EK9/+Iyxe3OMlMA8DyBEZGq6FNeg8zqkNWZWdp4+AhPlgF+xd96/p9ub9zLJLtnv31Zy/evMQkAAOD65VkZcln1un565IXOeubtnmraLshMc7d2aYJGPzJHn7y+Winxx8wUADxHiXLeCoiI+vFWGQfH6pC0mKm6eOqUmQDIzQu3PaUe9buaZDcidrTWJWwyCQAA4PrkeRlyWb1m/nrytW564pWbVa+pv5nmbtmc/Xr2wRn679/X6XAG/zgA4Fkcq0MCvLwUERJs5YXpGdrxwys1ltUhwK95ue9z6lyrvUlOFy5dsAqRrSk7zAQAAODa5VsZclnzDsF65p2eeuT5zqpex89Mc7cgZreG3ROrb/61SadOnDNTAHBvpStXUWB4pAZW++nqkERrdYiys80EwM8ZFz5Kbaq1NMnpxNmTViGyJ2O/mQAAAFybfC9DLmt3SzW9+NFtevCp9goI9THTqzn+XTDjq+1WKbJkeqIuXrxk/hsAcF8BEZGq5e2t3oEBVl6cfkjnsrLYOwS4BiWKl7AKkSZBDc3EKfPkYasQSTjM0+oAAMC1K7Ay5LKufWpp7Od9rSfQ+FbyMtOrnTl1QQunxmvY3bGaH73bTAHAPZUNDZN/79v0eL3aauVXUffXyNloOiVmivUVwC8rV7qsVYjUrVrbTJySj6ZahUj68UNmAgAA8MsKvAy5rFdUPb31dYSiHmyqMmVLmunVjmad0Zf/WKdnfj9DS2exDBaA+wqKjFKl0qX1fusWus+UIWeTk5Uxe5Z1DOCXVfL2swqRan7OW84u2595UMNjR+vYmeNmAgAA8PMKrQxxKF6imPr9rone/Cpct9999dLXn0pNPKZ/j1+tFx+eozWL480UANxHuTp1Vemmm01ySolmdQhwrYIqBGhs+CgF+Fy9OfvOtN1WIXL2wlkzAQAAyF2hliGXefuU1sAhLaxSpEd4XTPN3cE9WfrgpeUa+9cF2rw62UwBwD04Vodc6dT+fcpcvMgkAL+mZuXqViFSsayvmThtTNxiFSIAAAC/xCXKkMsqVS2n3z3WRq98eoc6965pprnbtTldbz/7nfVyHAOAO/Bp2kwV2zkfE7r+8BEdOntWqY4nywC4Zg0C6lqFiFfJMmbitDpunUZMG2MSAADA1VyqDLksuFoF/XF4Bw15oZla3xRqprlzrA5xrBL54OUVit972EwBwHU5HrPr8E1Ckv68bqMeWL1OR7du0eHVq6w5gGvTPKSxVYgUK1bMTJy+27Nco2aMNQkAAMDOJcuQy0JqltdfXrxJT4/vriZtAs00d2sWHdSoP83Wp+PXKC2JzdMAuC7HypAKTZupQqmczaMzz53T5IQkpbE6BLhu7Wu0tgqR3MzduUivzX3HJAAAACeXLkMua9gyQMPG3aLHXuqqOo2rmGnulszapxH3T9fE99frSOZpMwUA1xIQEanegQGq5e1tZUcZcmTt9zq2eZOVAVy7rrU7aswdI0yym7Zllt5a+E+TAAAAcrhFGXJZy04heu69XvrTs50UVquimeZu3tRdGnZPrKb+e7POnDpvpgDgGip37SbvOnU1sFrOI0KTTp/W9OQU9g4BblCvBrfouVufNMlu8oZY/XPpJyYBAAC4WRlyWYce1TXm4z564K/t5B9U3kyvdulitr79cptVisz4aruZAoBrCIyIVERIsAK8vKw8KSFJWUuX6OSe3VYGcH36NrlVw7r/2SS7/6yZpE9W/tckAABQ1LllGXLZzX1r6/X/9tNdD7eUj+/Vu8lfdurEeX3zr01WKbIgdo+ZAkDh8r+1j7xCQjUwLGd1yJ7jJ7QwPYPVIcBvcGfL/vpL1z+aZPevFf/Rl99PNgkAABRlbl2GXHbbwAZ68+twRfy+qUqXKWGmV8tKP6X/vrdWzz04Q8vnHjBTACg8jtUhg8JC5GM2U50cn6iMuXN0JiHBygCu371tB+qPne4zye4fS/6lbzZMMwkAABRVHlGGOJQqXULh9zfR+K/Cddughmaau+T4Y/rXuFUa8+gcrV3CPzgAFJ7AiCiVq+KvgWE5jxHfeOSoVmdmKTWW1SHAb/FQx9/pvnaDTLJ7c+H7mr51jkkAAKAo8pgy5DLH7TJ3/amF3viyv27pV8dMc3dgV5beH71M44Yt1NbvU8wUAApWUGSUdatMiWLFrOx4skxqbIzOHTpkZQA35tGbHtLAluEm2b0y5y3N27nIJAAAUNR4XBlyWZVAb93/RFu9/K/b1alnDTPN3c6NaXpzxGK9+/wS7d3GPz4AFCzH6pDKFXx/3Dtk+aFMbTl6VKnRU6wM4MY92f1R9W/axyS7kTPGasm+lSYBAICixGPLkMtCavpqyDMd9dzfe1mP5v0lG1cm6ZXH5umjV1cqYf8RMwWA/FXcy0uB1uqQnFtlHOakpCs1NloXT540EwA36pneT6h3g1tMshsRO1qr49aZBAAAigqPL0Muq9Ooih57qaueev0WNWoVYKa5W7UgTiOHzNLnb3+vjJQTZgoA+cexOiTEu5weqFndynV8vHXp7FmlsDoEyBOj7xihm+t2NskpOzvbKkR2HtprJgAAoCgoMmXIZY1bB+pvb3TX/42+SbUaVjbT3C2evldP/+5bzfk6TseOnDFTAMh7pfz8FBAeqT/VrqmVPbspIiTYmqfFRCv74kXrGMBvM7b/SLWv0dokpzMXzuqtlR9oZxqP3wcAoKgocmXIZa26hOqFf/TWkBEdFVLD10xzt3JusobdHavoz7bo/Fn+UQIgfzhWh1zp/NEjSo3hyTJAXhkXPkotQpua5HTs7HFrhciBzINmAgAAPFmRLUMu69Srhl7+5Hbd91gbVa5azkyvduH8JU37z1Y9eXeMZk/aaaYAkHe8goNVtc/tJjmlxkSbIwC/VZmSZaxCpEFAPTNxSjueYRUiKcfSzAQAAHiqYnFxcdnm+EcTJ07U4MGDTSo8SUlJCgn55U1P89qymUlaPitJp09eMJPcVaxSRl1uD1Wbbr+8/0heKYyfRW6K8rWRG87DqV27dhoyZIj1Kkzu/p6cT0jQodEvmOTke/8DKte1m0nXzlV+Hq7w2cGfV7uifm1knjqsscveVcKxZDNxql4xTM92eVy+XhXMpOC4wvvC54Ydf2btXOE8uDbsOA87fudw4jzsrrw2imU7dg67woQJEzR06FCTCs/BgwdVvXrOZoIF6eyZC5r59Q7N/Gq7Lly4ZKa5czyt5o67G6njrzy+97cqrJ/FlYr6tXElzsMpODhYw4YNs16FyRPekz2vjFHm4kX6x559+vJggh6uXVOPdL9FzSZ8Yr7j2rnKz8MVPjv482rHtSElHE7SE1OeVfLRVDNxahLUUO/e+ZrKlS5rJgXDFd4Xrg07/szaucJ5cG3YcR52/M7hxHnYXXltFPnbZHJTxqukIh9oqje/DtetdzYw09wlHTiqCa+t1Mt/mav1yxPNFABuXFDkAOvr/hM5j9X9PC5eh/buUeaiBVYGkDfC/EI0NnyUKnv7mYnT1pQdGh47WhcvsVcYAACeiDLkF1Tw89Ldj7TUY2Nb6eY76php7vbtyNTfRy7VG39bqO3rudcYwI0r36ixKrbvoIjQnCfKnL54UZPiE5USzUaqQF6r61/LKkTKlbp6Bcja+A1WIQIAADwPZcg1qFTVSw882VajP7pN7W/55eU9jiLEUYj8Y9RS7d+RaaYAcH0cq0O6+ldRE9+cPQsmJSTp2PZtOrxqhZUB5B3HLTHDOj2qksVLmonT8v2r9fz0V0wCAACegjLkOlSr46eHn++kZ97pqeYdcv4X25+zblmiXvrLXH08dpWS4o6aKQBcG9/WbVSheQsNCgu18uFz56xCJJXVIUC+aOxf31ohkpsFu5bopdnjTQIAAJ6AMuQG1GvqrydeuVlPju2mBs2rmmnuVsw7oOcfmqkv3l2rzLSc+/8B4FoERkSpV2BV1Slf3sqTEhJ1dP06Hd243soA8lbnWu30ar/nTbKbuW2e3pj/d5MAAIC7owz5DZq2DdLwt3roz6O6qGb9Smaau0XT9uipwdM0acJGnTx+zkwB4OdV6nKTyterr0HVch5FlnL6jGKSkpUWE21lAHnvlno3aWSfv5lkN3XTdL23eIJJAADAnVGG5IE2XcM08p+36qGnOygwzMdMczfrfzv05F0xmvafbb/62F4ACIiIUr/gIIWUzdnccVJ8krKWL9OJnTutDCDv9WnUU8N7PWaS3VfrpmjC8s9NAgAA7ooyJA91ubWmXvusr+79S2v5Vbl6V/rLzp29qOjPNmvY3bGa+80uMwWAq/n36q2yYdV+XB1y4ORJzU5JU2ose4cA+Smi2R16vNufTLL7dNVEfb76K5MAAIA7ogzJBz0j6+nNr8J150PNVda7lJle7djhM/rqg/Uaft+3+m7GPjMFADvH3iGOjVSrlCltZcfeIYfmz9PpgwetDCB/3N06Sg93edAkuw+Xfab/reeWNQAA3BVlSD4pVryY7hjcSG9+Ha6+gxur+A/556Qnn9Bnb63RyKGztGoh/7gBYBfQP1yl/f010DxZZsex41p+KFOpMawOAfLb79vfrQfa32OS3TuLPlTMphkmAQAAd0IZks/KliulAQ81s0qRXlH1zTR3CfuO6KNXVujVx+dp06pkMwUAKTDcsTok5MfVIScuXFDa9Gk6l55uZQD5509dHtA9bQaYZDdu/nuavX2BSQAAwF1QhhSQipXLavCfW+m1z/uqy221zDR3e7Ye0jvPfae3RizWzk38QweAFBgZJW9fX33Wvo3+26Gtbg0MsOasDgEKxmM3D1Vk8ztMshs963Ut3L3UJAAA4A4oQwpYYKiPHvpbe4364Fa1vbmameZuy/cpGvfkAr0/epmSD5wwUwBFUfHSpRUUGaXKP3ytXd7bTKWU6Cm6cPy4SQDy09M9H9PtjXuZZPfcty9rxYE1JgEAAFdHGVJIatSrpEdHdtaIt3qoWbtgM83d2iUJmvDSZn3y+iqlxB8zUwBFjeNWmWIlSpiUI/vCBaVGTzEJQH574ban1L1eV5PsRsSO1rqETSYBAABXRhlSyOo3r6q/vnaznnjlZtVrWtVMc7dszgE9++AM/ffva5WVccpMARQVJX19rdtlruS4VcZRigAoGK/0e06da7U3yen8xQtWIbI1eYeZAAAAV0UZ4iKadwjWM+/00CMvdFa12hXNNHcLYvZo2D2xmvLJZp0+ed5MARQFjsfsXvbO7r26b9VapWVmWrfLACg448JHqXW1FiY5nTh7Us98O0Z7Mw6YCQAAcEWUIS6mXbdqGj2hjx4c1k5VQ8qbaS6ypekTt2nY3bE/fN2uS5d+GADweGUCAhVwR1/r+H/xidp74oQ+3HtAaTHR1gxAwShRvITG9R+lpsENzcTp0Iksa4VIwuEkMwEAAK6GMsRFdb29tsZ90U/3PNpKvpW8zPRqp0+d15RPNlmlyLypu80UgCcLMKtDepsnykxPTtH+g3HWo3YBFBzvMuU0NnyU6vpf/ZS4pKMpGh47WhknDpkJAABwJZQhLq73gPp686twdY+sJq+yJc30akcyT2vi++v0zO+na+ms/WYKwBOVq1FTVbr30MCwEDORJickKZXVIUCBq1TOzypEqvmFmonTgcyDViFy7AxPfAIAwNVQhriBEiWLq2u/UI3/Kly3393ITHOXmnhc/x6/Wi8+PFtrFsebKQBP41gd0sS3gjpXqWxlRxmSvGe3Di2YZ2UABSfYN9AqRKqWr2ImTjtSd1uFyLkL58wEAAC4AsoQN+LtU1oDhzTXm1+Hq3v/umaau4N7DuuDl5Zr7JMLtGVNipkC8BQ+DRvJr2OnH1eHXMrOZnUIUIhqVq5mFSK+ZSuYidPGxC0aPm20SQAAwBVQhrihSv7ldN/jbfTKv29X5941zTR3uzal661nFuud577T7i0ZZgrAEzieLNO+ciW19Mt5ApWjDMncvk2Hly+zMoCC1TCwnsb2HyWvUmXMxGnVgbUaETvGJAAAUNgoQ9xYcHVf/XF4B73wfm+1vinMTHO3aVWyXntivrVa5ODew2YKwJ35tmqtCi1a/rg65MSFC5qckKiUmKlWBlDwWoQ2sVaI5Oa7vcv14sxxJgEAgMJEGeIBajWorL+82EVPj++uJm2CzDR3jn1EXvzTbH06frXSEtnQDXB3QZEDdEtVf9X38bHy5PgkHdu4QUfXr7MygILXvnprjfuZQmTOjoV6be7bJgEAgMJCGeJBGrYM0LBx3fTYS11Vp7G/meZuyaz9GvH76dYTaI5mnTFTAO7Gr1Nneddv8OPqkPSzZzU1MVmp0awOAQpT1zqdNOaOZ0yym7Zltt5e9IFJAACgMFCGeKCWnUL03Hs9NfSZjgqtmbOXwM+ZN3W3ht0Tq6mfbtbZ0xfMFIA7cawOuSM4UGHlylrZcavM4VUrdHz7NisDKBy9GnTTs73/apLdpPUx+ufST0wCAAAFjTLEg3XsWUMv/auPfv/XtvIP9DbTq128cEnf/nebVYrM/Hq7mQJwF1V69FS5GjU0MCzUynEnTyn7h688WQYofP2a3qZh3f9skt1/1kzSv1d+aRIAAChIlCFFQLe+dfT6l/1118Mt5VPx6h3uLzt5/Jwmf7xJw+6O1YLYPWYKwB0EhEdZt8oMrV1TzzWqr2I/zDIXLdD5xIScbwBQaO5s2V9/7vqQSXYfr/hCX34/2SQAAFBQKEOKkNsGNtCbX4Ur4vdNVbpMCTO9WlbGKf33vbV69sEZWj7ngJkCcGUBffupTECAHqxZXX2DnRspn1q4wBwBKEy/aztIf+x0n0l2/1jyL03ZOM0kAABQEChDiphSpUso/P4mVinSZ1BDM81dSvwx/ev1VRrz6BytW5popgBcVWBElDlyOrVksc6mppgEoDA91PF3VimSm/EL3te3W+eYBAAA8htlSBFV3reMBv2phV7/bz/rNppfcmBXlv7x4lK9/tRCHUktaaYAXE1AeKRKVqhgkhN7hwCuw3G7zMCW4SbZvTrnLa1I/N4kAACQnyhDijj/oPLWBquOjVY79qhhprnbsSFNO74rq/deWKK92w6ZKQBXUbxUKdvqkK/jEzU/LV0p0VN0/ugRMwVQ2J7s/qj6NbnNJLv3Vn2sJXtXmgQAAPILZQgsjkfwDn22o577ey+17JzzRIqfs2FFkl55bJ4+enWFEvbzDyzAlQRFRqlYqVJanZmld3fv1QtbtmvHkaNKY3UI4FKevfWv6t3wFpPsRsSO1pqD600CAAD5oVhcXJzjCYw2EydO1ODBg00qPElJSQoJCTGp8LjCeRT0OezbdkTLZyVr//ZfLzta3xygm+4IVcUqP/+kmrzGtWHnCufRrl07DRkyxHoVJt4T6djk/2n71Cm6e+UaK/cJCtCoNq0U8Oa7Kla6tDUraK7w9wrXhp2rnEdR/51j/Ip/am3yRpOcvEqW0Yguj6lBlbpmUnC4Nuz4M2vnCufBtWHHedjxO4cT52F35bVRLPsH5vhHEyZM0NChQ00qPAcPHlT16tVNKjyucB6FdQ7rliZo5tc7tH9nppn8PMfTam6/u9EvPr43r3Bt2LnCeQQHB2vYsGHWqzDxnkjnMtK1fvBdemnbTs1MSbVmX3Vsp66PP6Hgu+6xckFzhb9XuDbsXOU8+J1DemLKc1odt9Ykp4plffX2gFfUIKBgCxGuDTv+zNq5wnlwbdhxHnb8zuHEedhdeW1wmwx+UeubwvTC+731x+EdFFzd10xzN3vyTg27J1Yxn2/RubMXzRRAQSvtX1UB/cI1qJqzgZ+UkKjUmKkmAXAl48JHqUVIE5Ocjpw+qmemjVFcVryZAACAvEIZgmvSuXdNvfLv21Wz1RlVruptplc7f+6iYr/YapUisyftMFMABS0wIlL1fXzUvaq/laMTkxWfmKjU2BgrA3AdZUqW1tjwUWoYUM9MnFKPpWt47GilHE0zEwAAkBcoQ3BdAuue1/iv+mvQ0Bby9vn522FOHD2r/320UX+7d5oWfbvHTAEUlLLVqsu/Z28NrObcEHlSfJLSYlkdArgi37IVrEIktEKQmTjFZyVahcjhU2xaDgBAXqEMwQ3pc1dDvfl1f/W/r4lKlCxmplc7lHpSX7yzVs//caZWLjhopgAKQkBEpFpU9FWnKpWt7LhVJmXffmXMnWNlAK6lqk8VDev0qIJ9A83EaU/GPqsQOXXulJkAAIDfgjIEN6yMV0lFPtBUb34Vrt4D6ptp7pIOHNWEV1folf+bpw3Lk8wUQH4qX7+BvFq21qCwnL1DLmZns3cI4OKCygdYK0Qqe1cyE6ctyds1PHaMLmVfMhMAAHCjKEPwm/lWKqt7Hm2lsV/0Vdfba5tp7vZuP6T3Ri7R+KcXaft67n8G8lu5Hj3VvnIltfKraOVJCUk6tHOHspYusTIA11PXv5Ze6z9S3qXLmYnT2vgN1goRAADw21CGIM8EhPjowWHtNPqj29T+ll9+dNK2dal6428L9fdRS7V/x68/thfAjSnToKF8W7fRoLCcvUNOXrigyQlJrA4BXFzT4IbWCpGSxUuaidOyfav0/PRXTAIAADeCMgR5rlodPz38fCc9+25PtejgfLRnbtYvS9RLf5mrj8euVPLBY2YKIC8Fhkfq5qpV1KhCBSsvTs/Qsc2bdHTt91YG4JraVGthPXY3Nwt2LdHLs980CQAAXC/KEOSbuk389fgrXfXk2G6q37yqmeZuxbw4PfeHGfrPe2uVmc7mcEBe8uvYSeUbNdbj9Wqrrk959Q3OeVpFSvQU6ysA19WpVju90u85k+xmbJurN+b/3SQAAHA9KEOQ75q2DdKIt3ro0ZGdVaPe1RvC/dTC2D166p5YTf54o04eP2emAH6roMgoNavoqy/at1FUaLA1O7JmtY5v22odA3Bd3et11cg+fzPJbuqm6fr7dxNMAgAA14oyBAWm7c3VNOqDW/WHv7VXYFjOcv2fM/PrHRp2d6ym/WerLpxn13zgt6rcrbvK1axlklMqq0MAt9CnUU893fMxk+wmrp2iCcs/NwkAAFwLyhAUuJtuq6XXPrtD9/6ltfyqXL1T/mVnz1xQ9GdbNOyeWM35ZqeZArhRgZFR5sgp87vFOrlvr0kAXFlk8zv0eLc/mWT36aqJ+mLN1yYBAIBfQxmCQtMzsp7e/Lq/7nyoucqWK2WmVzt2+Iy+/mCDht/3rZbM3GemAK5X1T53yCso5xYZhz3HT1hfebIM4D7ubh2lP3V+wCS7D5Z+qv+tizYJAAD8EsoQFKpixYrpjsGN9Ob/wq2vjvxz0pNP6NM312jUn2Zr65pDZgrgegRERFpfP9i7X/evXquH125QxuxZOpOcZM0BuL4HOtxjvXLzzuIPFbN5pkkAAODnUIbAJThWhjhWiDhWijhWjPyS+L2H9c2Hu/XqE/O1aRX/gAOuR2BElEpV9FOZ4jkf/5uOHNXyQ5msDgHcjGN1iGOVSG7GzXtXs7bPNwkAAOSGMgQuxbGHiGMvEceeIo69RX7Jni0Zeue5JXprxGLt3JRupgB+SbHixRUYEamBYaEqZQqRyQlJSouJ1vmsLCsDcA+O/UMim/c1yW7MrDe0aM8ykwAAwJUoQ+CSHE+bcTx1xvH0GcdTaH7Jlu9TNO7JBXp/9DId2MU/5oBfExARJd/y5TUoLMTKqzOztCHrsFJjWR0CuJune/6f9aSZ3Dw77SWtOLDGJAAA8FOUIXBpNepV0qMjO2vEWz3UtG2QmeZu7ZIEjXl0jv79xmqlJhw3UwBXKuntbVaH5JQhDo7VISnRU3Xx9GkzAeAuRvb5m7rX62qS3YjY0VqfsNkkAABwGWUI3EL95lX15NhuevyVrqrbxN9Mc7d09n4988B0ffmPdTp8iH/YAbkJihygAC8vRYTkPF1mYXqGdv7wSmPvEMAtvdLvOXWq1c4kp/MXL1iFyLYUHlEPAMBPUYbArbToEKJn3+2pOx+up2p1/Mw0d/Ojd2vYPbH65pNNOn3yvJkCcChVubIC+kdoYLWfrg5JVAplCOC2xoWPUptqLUxyOn72hFWI7M3YbyYAAIAyBG6pSbsqGv3RbXpwWDsFhPiY6dWyL2VrxsTtGnZ3rKZP3KZLP2QAORyrQ2p5e6t3YICVpyen6kCi43aZKVYG4F5KFi+pseGj1CSooZk4HTqZpeGxY5R4JNlMAAAo2ihD4Na63l5bY7/oq3sebSXfSmXN9GqnT53XlE82W6XIvKm7zBQo2rxCQ+V/621X7R3ieLIMAPfkXbqcxoaPVF3/q5/Ilnw0RcNjRyvjxCEzAQCg6KIMgUfoPaC+3vwqXJEPNFUZr5JmerUjmac18f31euaBGVo2m+XCQGB4lJr4VlAX/8pWdtwqkxx3QOmzZ1kZgPup7F3JWiESVtFZdF62/1CcVYgcP3PCTAAAKJooQ+AxSpQspv73NdGbX/dXn7uuXiL8U6kJx/TJG6s1+pE5+v67eDMFih7vunVVuevNGhgWamXHjWRzUtPYSBVwc8G+gVYhUtWnipk47UjdbRUi5y6cMxMAAIoeyhB4HG+fMho0tIXGf9Vf3cPrmmnu4nZn6Z9jlmvskwu0eQ33UaNoCoiIUrtKfuoZUNXKVcqU0cl9e5X53WIrA3BPtapUtwoR37IVzMRpQ+JmqxABAKCoogyBx6pc1Vv3PdZGr/z7dnXuXdNMc7drU7refuY7vfPcd9q9Jd1MgaKhQtNmqti2nV5q2kgre3ZTL1OKpLI6BHB7DQPqWU+ZKVOyjJk4rYpbq2emvWQSAABFC2UIPF5wdV/9cXgHvfB+b7W+KcxMc7dpVbJee2KBPnhpueL3HTZTwPMFRkSZI6fjW7foyJrVJgFwV81Dmmhc+EiT7BbvWaYXZ44zCQCAooMyBEVGrQaV9ZcXu+hvb9yixq0DzTR3axbHa9TQ2fr0zTVKT2KTOXi+iu3ay6dJU5OcWB0CeIb2NdpYK0RyM2fHQo2d945JAAAUDZQhKHIatQrUU6/fosfG3KQ6ja7eWO6nlszcp+H3f6uv/rleR7POmCngmQIjIs2R05Hv1+j4ls0mAXBnXet00ujbR5hkF7t5lt5e+IFJAAB4PsoQFFktO4fqub/30tBnOyq0ZkUzzd3cKbs07J5YTf10s86cvmCmgGepfPMtKle7jnU8bsdudZy/WAvS0pUSPcWaAXB/vRveomdv/atJdpM2xOiDpf82CQAAz0YZgiKvY48aeulfffT7v7aVf1B5M73axQuX9O1/t+mpe2I18+vtZgp4lqDInL1D1h8+Yn39PC5eWUuX6OSePVYG4P76NblNT3Z/1CS7L9b8T1O2TzcJAADPRRkCGN361tHr/+2nux5uqfK+V++6f9nJ4+c0+eNNGnZ3rL5flGqmgGfwv7WPvIJDFB4SZOU9x09oflq6UmNYHQJ4koEtw/Xnrg+ZZDd5+zRNXPuNSQAAeCbKEOAKtw1soDe/Clf4/U1UqnQJM71aVsYpzfjPfj33h5laPveAmQLuLzAySoOqhapiqVJWnhSfpIy5c3Q6IcHKADzD79oO0kMdf2eS3d+/+1jfbJxmEgAAnocyBMhF6TIlFPH7plYp4ihHfknywaP617hVeunPc7VuKf9YhPtzPGa3XOUqGlgt1Mpbjh7VsoxMniwDeKA/drrPKkVy8+aC9zV961yTAADwLMXi4uKyzfGPJk6cqMGDB5tUeJKSkhQSEmJS4XGF83CVn0VRvTYOHzqrZTMSte67NDP5eTUb+qrL7SGq3fiXN2XNS65wfbRr105DhgyxXoWJzw27Gz2PEzOnK2XS1+q3dKXOXLyotpX89F6r5qr6xtsq4ednvuvaucJnB9eGnaucB79z2BXWeXy68SvN2bvIJLvH2g9Rp7C2JhUcrg07zsOJa8OO87Djdw4nzsPuymujWPYPzPGPJkyYoKFDh5pUeA4ePKjq1aubVHhc4Txc5WdR1K+NxANHNPPrHVo5P85Mfl6LTiHqe08j1f6Vx/fmBVe4PoKDgzVs2DDrVZj43LC70fO4ePq01t99p/6xeau+iIu3Zn9v1Vz9H3lU1f54/Z8BrvDZwbVh5yrnwe8cdoV5Hq/OfVvfbpltkt3rEaN1U+0OJhUMrg07zsOJa8OO87Djdw4nzsPuymuD22SA6+B4BO/QZzrqufd6qmWnX243N65I0sv/N08TXltplSiAOylRtqwCwyM1MCznVhmHSQlJSo2J1sWTJ80EgCd5tvdf1atBN5PsRsSO1pqD600CAMD9UYYAN6BOY3899lJX3TeskRq2DDDT3DlWkbzwx1n6/O3vlZF6wkwB1xcQEaUqXmU0yBQiSzMOaXO648ky7B0CeKoxdzyjNsEtTHK6lH3JKkQ2J28zEwAA3BtlCPAbOPYFeXp8d/3lxS6q1aCymeZu8fS9evreb/W/Dzfo+JEzZgq4rtKVKikwIlKDqjlXQU2KT1RK9FRlX7pkJgA8zVOdHlX76q1Ncjp9/oyGx47WrrS9ZgIAgPuiDAHyQOubwvTC+731x+EdFFzd10xzN3vyTg27Z5piPt+i8+f4ByVcW1DEAIWULav+IUFWnpeWrr3JyUpjdQjg0caGj1KL0CYmOR05dVTDp41WXGbOXkIAALgryhAgD3XuXVOv/Pt23fd4G1XyL2emVzt/7qJiv9iqJ++OscoRwFWVCQ6W/219frxVxuHkhQvW6hAAnsurVBmN7T9KDQLqmolT2rF0a4VI6g9fAQBwV5QhQD7o3r+u3vw6XAOHNJe3T2kzvdqJo2et22ae/t231m00gCsKihyg2uW99WGblvrgh1dj3wo6m5qitJnTzXcA8ES+ZStYK0RqVq5mJk7xhxOtQuTwKTYIBwC4J8oQIB/dfncjjf8qXP1+11glSv78H7eMlBPWBquOjVZXLvj1x/YCBalcrdqq3O0WNa/oqxY/vC5Li4k2RwA8VYCPv1WIBFW4erPw3el7rULk9PnTZgIAgPugDAHymVfZkop6sJne/CpcvQfUN9PcOR7BO+HVldYjeTcsTzRToPAFRkSZI6dTB/br0KIFJgHwVNX8Qq1CpFI5PzNx2pK83SpELrGpMgDAzVCGAAXEt5KX7nm0lcZ90U9db69tprnbt/2Q3hu5VOOfXqQdG9LMFCg8Po2byK99B5OcWB0CFA31qtbWuPBR8i5z9X5Y3x/cYG2qCgCAO6EMAQpY1ZDyenBYO42e0Eftul19H/ZPbVuXqtefWqh/vLhM+3dmmilQOAJ+sjrkle27NGLzVh3fvk2HV64wUwCerElwQ43rP0olipcwE6dl+1bphen/395dgEWV9u8Dv0EQ6e6yuwMDu5twzd11U3fd9BXbVexm13XDXbfLXAXs7u7ALrpLFKTE13N4dBgZXQOYgbk/7zUXc9+7v+t//nB2mPnynOfMFomIiEjzcRhCpCZuVSwwYrInJizqhAYtnESr2sn9EZjx8Tb8PO8IosNui5aoZFk0bQaz+g1wNzcXG6JjsDc+EX/cCkNsMFeHEGmLJm4N5RUiquy4shcztwSIREREpNk4DCFSs+r17DByVjv8b0471GhgJ1rVDm67hUnvbsJfi08gKT5dtEQlR9o7xERPD7XNzOS8OiIKt0+eQNqZ03ImorLPs3JzzOozSSRlGy9sw8Kd34pERESkuTgMIdIQ9T2cMP7LTvhoiicqVrcSrWq7gq9h9OB1WLX0DNLvZImWqPhZtWkL42rV0d/VWc5J2dn4NyIKsdw7hEirdKzeFpO7jxZJ2Zoz6/HN3qUiERERaSYOQ4g0TLN2bvBf0g3vjWkOBxdT0aq2eeUl+A1ah33rI3E/lzv5U8mQVod0d7RHReP8jRRXRUQi+eB+3L1yWc5EpB161umCsZ0/E0nZshNr8NOhP0UiIiLSPByGEGmo1t0rY84fvTHk48awsDYUbWFZmbnYFRgOv8HrsG3NFdESFR/brt1QwdUV/V1d5ByRcQ+bYmIRG7hWzkSkPXwa9MJn7YeLpOzXw//gz6MrRCIiItIsHIYQabguvjUQsMIL/d6rD0MjfdEWdjv5HpZ/fwrjh27Avk03REtUPBy9+8HXxQl2BgZylvYOSdy5HffCw+RMRNpjcJN++KD12yIpW3LgN6w8FSQSERGR5uAwhKgU0NXVQe8hdeShSK8htaHzMD9NXNQd/BZwDP4fbMHR3fxgSsXDvq8XytvYoL9b/t4hl9PuYE98AleHEGmpt5sPxlvNB4mkbNHuJQg6t0kkIiIizcBhCFEpYmisj9fea4CA5V7o7FNdtKqFX0/BDzMPYfbnO3DmSJRoiYqOg08/+VIZ6e4yEml1SNyGdchOiJczEWmXD1u/g0FNfEVSNm/719hyaadIRERE6sdhCFEpZGljiNc/aYI5v/dG626VRKvatZAEfD1pH76asBdXzvJDKhUdBy8fGJuZPb6zzKmUVBxLTkEMV4cQaa3P238A7/q9RFI2bdN87L52QCQiIiL14jCEqBRzcDXFe2NbYNjk+mja1lW0qp07Fo25o3bi++kHEXo1WbREL0/XwEC+s4w0DNHVyb90a3VEJOKC1iL3TpqciUj7jOvyGXrU6SySsonrZuDwreMiERERqQ+HIURlgHMlE3zs3xrjvuyEes0cRava8b3hmDZiK35ZcBSxEfzASq/G3tsHVoaGj1eHnE65jbycHMQGBcqZiLTTlO5j0KF6G5GUjQ+ehlMR50QiIiJSDw5DiMqQmg3sMGpue4yc1Q7V69mKVrUDW25iwtsb8c+3J5GSmCFaohejb24hrw4ZWb0qhri7YmLtGnIfG7QWD3Jz5OdEpJ1m9/kCnpU9RFLIvp+DccHTcCHmsmiIiIhKHochRGVQgxZOmLCoMz78ohXcqlqKVrUdgVfhNygY//5yFvcy+OGVXpy0OkTyabUq6GiXP4TLTUvj6hAiwlwvfzRxbSCSwt2suxi/bjpuJN4SDRERUcniMISoDGvewR3TfuyOt0c1g52TiWgLe/AA2LjsIkYPWid/fSAVRM+pgoMj7Hr2FkkhJnCNeEZE2kpPV08eiNR1rCUahcS7SfIKkcjUaNEQERGVHA5DiLRAu15VMe+vPhg0ohHMLCuItrCM9Gx5hYjfoHXyihGi5+XoU/h2mtnx8YjfuF4kItJWJgbG8kCkqm3hu59FpcbIAxFpMEJERFSSOAwh0iLdXquJgBVe8Hm7Hgwq6Im2MGkPEWkvEWlPkf1bboqW6OkMK1aCdYdOIgH/hEXIt9rl6hAiklgbW2JuX3+4WuZvtlzQzcRQeSByJ/OuaIiIiIofhyFEWkZPTxd936wrD0V6Diq8bLkg6W4zvy44Kt99RroLDdGzPFodEhgZjW+v3cCnp84i+to1JO7cIfdEpN2cLRzlFSJ2pjaiUbgYe0UeiOTc595VRERUMjgMIdJSxqbl0X9YQyxc7oWOXtVEq1ro1WR8P/0g5o7aifPHY0RLpMykVm1YtvSEk2H+pVh5Dx5gdUQUYoO4OoSI8lW2dsfcvlNgVsFUNAqnI8/JAxEiIqKSwGEIkZaztjPCm581xcxfeqJVl4qiVe3K2Xh8OX4PFk3ah2shCaIlUnDw9kFzays0srSQszQMSbp4EWZRkXImIqrlUAPzvPxhoGcgGoXDt45jwrrpIhERERUfDkOISOZc0RzDxrfE5G+7onFrF9GqdvZIFGZ/vgM/zDyE8OspoiUCzBs3gXnDxujvmr8vwN3cXKyOiITNdW7IS0QKDV3qyQMRVfZcO4hpm+eLREREVDw4DCEiJZVrWePTaW3QYaAZktKf/QH26O4w+H+wBb8FHIOhvrVoSdvZe/ugg50tapjmL4NfHR4Fk/g43D51Us5ERJLmFZvIl8yosuXiThzKPCUSERFR0eMwhIhUGjq8F9Yd8cdnM9qiau3Cm90VtG/TDbStOhExF82QlpIpWtJWVp6tYVKz5uPVIfFZWVgbGY3YoLVyJiJ6pF01T0zrNV4kZVdybmHR7h9EIiIiKlochhDRMzVq5YxJ33TB8ImtkJIeIVrVkkJNMGpQEAJ/P4+szFzRkjZy8PJFLycHuBoZylm6VCbl8CHcvXRRzkREj3St2QETuo4USdnKU4FYsv9XkYiIiIoOhyFE9Fxada4IA/eTGDqyGWwcjEVb2P3cB1j3Vwj8BgVj08pLoiVtY9O5Cwzd3dHfNX//mdD0DGyJiePqECJSqW+9HhjV8SORlP15bCV+O/KPSEREREVD58cff3wgnj+2b98+tG3bViT1SUpKgrW1+vch0ITj0JTvBc8NZWX5OKSfc/Xq1XHr1i1UrVoVAwYMwMqVKxEeHo4tW7Yg+rL+w4cBcrJ0xP+FagZGD+BUMwsO1XJEU7x4bihT53FY37wO55PH0XvfISRlZ6O2mRl+8WiMq916ItPMXPxbJYc/E2Wachz8vaJME45DncdwPvsqTmSdF0lZU4N6qFe+ukglh+eGMk04Dr5uKONxKNOE84M/E2Waem7oPHhIPH9s6dKlGD58uEjqExYWBnd3d5HURxOOQ1O+Fzw3lJX147hx44Y8CBkzZgzmzy+8s3921n1sWnHx4eMScrLvi1Y1J3dz9BxUC55dK4mmePDcUKbu4zj1+kD8dPQ4frhxS87zGtRF/7ffQaWRo+RckvgzUaYpx8HfK8o04TjUfQw/H/oLvxz+WyRlozt9gn4N+4hUMnhuKNOE4+DrhjIehzJNOD/4M1GmqecGL5Mhoqd61iBEUt6gHLzfqoeAFV4ITdojWtWiw27j53lHMOPjbTh1IFK0VNY5+vRDfzcXGJYrJ+fDicmI27geWXGxciYietL7rd7E6836i6Rs4c5vsSFkm0hEREQvj8MQIlJp7Nix8tcFCxZAR0dH6fEkU3MDXIlfjxod4tGudxXRqnbzchK+8d+PBWN248JJfiAu6xy8fWFmYYExNavJt9rtZG8r97GB3DuEiJ7uk7bvo1Z51b9PZm0NwI4re0UiIiJ6ORyGEJFK0moQ6So6VY+n0TfMxdv/88D0n3qgRadnL4W7eCoWC8fuxuIp+3H9YqJoqazR0dODg08/9HB0wO/Nm6CplaXcSxup5t6+LT8nIlKlhUFD9K7bTSRlkzfMxv4bh0UiIiJ6cRyGEFGRc61sgQ8mtsKkxV3kW/M+y+mDkZj16XYsnX0YkbdSRUtlibQ65IGu8q+bB/fvI4Z3liGi/zCp2yh0qdlBJGXjg6fhePhpkYiIiF4MhyFEVGyq1rHBZzPawm9eB9RqZC9a1Q7vDMXk9zfjj6+OIzE2XbRUFuiZmiKpWg2RFOKC1iIvK0skIiLVpvcaj7ZVWoqkkPfgAcYFT8O5qAuiISIien4chhBRsavb1AFjF3bEJ1PboFINK9GqtmfDdYx5fR1W/ngGd2/zg3JZkVC1mniWL/peJnLv3kVsUKBoiIiebq6XP5pXbCKSwr3se/JA5ErcddEQERE9Hw5DiKjENGnjginfd8P741rAyc1MtKptWXUJfoODEfxnyH/etpc0X46RMex795WfT79wGf0OHkHAlWuIDealMkT036TNu6WBSAPnOqJRSL13Wx6IhCVHiIaIiOi/cRhCRCXOs2slzPqtF974rCms7IxEW1h21n0E/XFeHopsWX1ZtFRaOXj7yF/Tc3Plr/9GRCE6MhJx64LlTET0LBX0DOSBSE175ZVmkrg78fJAJDYtTjRERETPxmEIEalNJ69qCFjuhf7DGsLYtLxoC7uTmoWVP5zG2NfXyZfRUOlk6F4RNp26YICbi2iAVRFR8p1liIieh4WhuTwQqWjlJhoFaWWINBCRVooQERH9Fw5DiEjteg6qJQ9F+rxRF7rldERbWEJsurzB6uT3N+HIzjDRUmni6OOLJpYW8BC32F0ZHomEWzeRuH2bnImI/ou9qa08EHE0K7wx99X4G/JARNpLhIiI6Fk4DCEijWBgqAffd+rhyxXe6OJbXbSqRd66jR9nH8Ksz3bg9KEo0VJpYFyjJiw9Wz9eHZKdl4dV4ZGICVwjZyKi5+Fu5YJ5Xv6wMs4frBYk3V1GGohId5shIiJ6Gg5DiEijmFtVwJCPm2DuH73Rtkdl0ap2/UICFk/eh4Bxe3DpNK8TLy0cvX3haWON+hbmcpYulUm9chnJB/bLmYjoeVSzq4K5fafAqLyhaBSOh5/G+OBpIhERERXGYQgRaSR7F1O8M7o5pv7YHR4dCl8bXlDIiRjMH70L3049gKhbd0VLmsqsYSOYN26CAa7Ocr6dk5O/dwhXhxDRC6rnVFteIVJOt5xoFPbfOIzJG2aLREREpIzDECLSaO5VLTHiC09MWNQZDVo4iVa1k/sj8NOMc/hp3hFEh3EDPU3m4OOLTvZ2qG5qIufVEZFIO3cWqSeOy5mI6Hk1dWskD0RU2XFlL2ZtDRCJiIhIgcMQIioVqtezxchZ7TBqTntUr28rWtUObbuFSe9uwt+LTyI5IUO0pEksW7SCae06GOCav3dIXGYW1kTyzjJE9HI8KzfHzN6TRFK2IWQbFu78ViQiIqJ8HIYQUalSz8MRE77qjBGTPeFerfDGeQXtDL4Kv0HBWP3TWaTfyRYtaQp7bx/0cnKAm5GRnFeFRyH16BHcuRAiZyKiF9GpRltM7j5aJGVrzqzHt3t/EomIiIjDECIqpTzau2HqD93x7ujmcHAxFa1qm1ZcxOjBwVj/9wXcz80TLambTYdOMKpUGQPc8vcOCc/IwP6ERK4OIaKX1rNOF4zp/KlIyv458S9+OvinSEREpO04DCGiUq1Nj8qY80dv+Q40FtaF7yjwSOa9XKz97Rz8Bgdj25oroiV1c/D2QT8XZ9Q0yx9o6enqImnPbmTcvCFnIqIX5dugNz5rP1wkZb8e+Qd/HlspEhERaTMOQ4ioTOjiWx0BK7zQqZ87DI31RVvY7eRMLP/+FMYNXY+9m/iBW93sevaGgYMjfvNogl0d2qCltZXcc3UIEb2KwU36YbjnWyIpW7L/V6w8FSgSERFpKw5DiKjM0NXVQZtezghY7oVeg2tDR0f8AxXio+7i94BjmPrBFhzbEy5aUgdpdYjEsJzi1pjxmzchMzpaJCKiF/dOiyF4q/lgkZQt2v0Dgs9vFomIiLQRhyFEVOZIK0Nee78BFi73Qifv6qJVLex6CpbMOIg5I3fg7BF++FYHR59+0DO3EEkhLpirQ4jo1XzY+m0MbJw/cH3S3G2LsOXiTpGIiEjbcBhCRGWWla0R3vi0CWb/1gutu1UWrWpXzydg0aS9+GrCHlw5Gy9aKhG6uo9XhxQUE7gWOSkpIhERvZyRHT6Ed4NeIimbtnk+9lw7KBIREWkTDkOIqMxzdDPDe2Obw//7bmja1lW0qp07FoO5o3bi++kHEXo1WbRU3KTVIboGBvLzKecvosfeg7iadgcxgWvkjojoVYzr/Bl61O4kkrIJ66bj8K3jIhERkbbgMISItEbFGlb42L81xn3ZCfWaOYpWteN7wzFtxFb8suAoYiPviJaKSzljYzh4+8rPd8TFIzUnB3/cCkNccCDyMjPlnojoVUzpMRYdq7cRSdm44Gk4HXlOJCIi0gYchhCR1qnZwA6j5rbH5zPbolpdG9GqdmDLTUx4awOWfXcKqUn3REvF4dEwxMvZSf66Kz4Bl+LiuTqEiIrMrD5foFUlD5EUcu7nyAORi7G89ToRkbbgMISItFbDls6Y+HUXfDCpFVyrFN7As6Dta6/Ab1Aw1vxyDvcyckRLRam8jQ0cvLzR381ZNMDqiEjEBfEWmERUdOZ6+aOJawORFO5k3pUHIjcSbomGiIjKMg5DiEjrtejojulLe+DtUR6wczIRbWF5eQ+wYdkFeSiyYdlFPHiYqWjZe/misrExujrYy3lDdCxuRkYiNoh3liGioqFfTk8eiNRxrCkahcS7SRi3bhqiUmNEQ0REZRWHIUREQrteVTDvrz4YPKIxzC0riLawe+k5WPPLWfgNDsaOwKuipaJg6OoK267d0N+14OqQKMRydQgRFSETA2N5IFLVtpJoFKRBiLRCRBqMEBFR2cVhCBHRE7q+VgMLV3jB5+36KG9QTrSFpSTewz/fnsSEtzfgwFYuqy4q0t4hdc3N0NrWWs7SpTLRt24iYetmORMRFQUbYyt5IOJikb9PUUE3Em/JA5G7WXdFQ0REZQ2HIUREKujp6aLvm3UQsMILPQbWEq1qsRF38Mv8I5j+0Vac2BchWnpZxtWqw6pNW/R3dZGzdDESV4cQUXFwNnfEPC9/2JoU3kxb2kxVGojk5OWKhoiIyhIOQ4iInsHEzAADhjfEwmV90aFvNdGqdutKMr6bdgDzRu3E9ZBU0dLLkFaHeFhZorFl/sa20jAk6cplJO/bI2cioqJS2aaiPBAxq2AqGoVTEecQcOh7kYiIqCzhMISI6DlY2xtj6OdNMfOXnmjVpfA15gVdPhuPv7+8iEWT9uLq+QTR0oswq98A5k2bPd47JD03Vx6IxARyI1UiKnq1HKrLA5HyeuVFo3AmNgQT188QiYiIygoOQ4iIXoBzRXMMG98Ck7/tiiatXUWr2tkj0Zgzcgd+mHkQETe4UuRFOfr0Q3s7W9Q0y/9rrTQMuRNyHqnHj8qZiKgoNXSpJw9EVNl99QCmbZovEhERlQU6oaGhhe4NuWzZMgwZMkQk9YmKioKzs+KOAuqiCcehKd8LnhvKeBwKHh4eGDZsmPxQp5L+Xty8eBsHNkU9/Prfw44m7ezh2cMZVnZPv1NNUSvtrx1Jc2chaP9+zLhwWc4HO7WDYb36sBrpJ+cXwf9elZX2c6Oo8eeioO3nxvHo0wg4tEQkZZ0rt8X7jd8QqWTxHFXg64YyHocyTTg/+DNRpqnnhs6Dh8Tzx5YuXYrhw4eLpD5hYWFwd3cXSX004Tg05XvBc0MZj0PByckJfn5+8kOd1PW9OHUwEpuWX8SNS/99K8Zur9VEz0G1YPaM2/cWldL+2pG0dw+uzZyGbbFxMNbTg6dN/h1magcski+leRH871VZaT83ihp/Lgo8N4Ctl3Zh6qZ5Iikb2NgbIzuMEKnk8BxV4OuGMh6HMk04P/gzUaap5wYvkyEiKgKNPV3wxbddMXxCSzhXMhetalv/vQy/QcEI/P08sjJ5l4JnsW7XHsZVqqKrg/3jQYgkNph3liGi4tOtVkdM6Po/kZStPBWEJQd+E4mIiEorDkOIiIpQy84VMfPnnug9tApsHIxFW1hubh7W/RUiD0U2rbgkWlJFurPMk5L37UX6tasiEREVvb71uuN/T1kB8ufRFfj1yD8iERFRacRhCBFRMWja3h4L/umLgR80golZ4bsTPJJ+JxurfzqD0YODsXvdddFSQbbde6CCU+HrTGODuDqEiIrXgMbeGFyv8EBW8tPBP7HsxBqRiIiotOEwhIioGHUfUBNfrvBG3zfrQk//6S+5SfEZ+PPr4/jivU04tD1UtPRIwdUh/iGX8OutMCRs24LMyEjREhEVD68a3fFuy9dFUvbN3qVYc2a9SEREVJpwGEJEVMz0DcrB5+16CFjhJW+e+ixRobfx09zDmPHJNpw8wA/6j9h7+0DfygonklPkzVR/unELR5KSERu0VvwbRETFZ1iroXi9WX+RlC3c+S02XtgmEhERlRYchhARlRAziwoYNKIR5v/dB+17VxWtajcvJeFb//1YMGYXLpyMFa320tHRgYOXL6qamkDv4XPJqvBIeSPV7KT/voMPEdGr+qTt++jXsK9IymZuCcCOK3tFIiKi0oDDECKiEmbraIK3/tcM03/qgRadKopWtYun4rBw7G4snrzvuW7bW5Y5+vjC2swMA9xc5Hw4KRlnUlIRx9UhRFRCRnf6GH3qdhNJ2eQNs3Hg5hGRiIhI03EYQkSkJq6VLfDBxJaYtLgLGrYsvEFoQacPRWHmJ9vw05zDiLp1W7TaRdfQEPbevhjgqvherYqIQkzgGtzPyBANEVHxmthtFLrUbC+SsnHB03A87LRIRESkyTgMISJSs6p1bPD5zLbwm9seNRvai1a1QztC8cX7m/DnouNIjE0XrfZw9PaFfYUK8HVxkvPu+ARcSEiUByJERCVleq8JaFu1pUgKeXl58kDkfPRF0RARkabiMISISEPUbeaIcQEd8bF/a1SqYS1a1Xavv44xr6/Dyh9P487tLNGWfdImqg4+0uqQ/EtlJKsjIvMvlXnwQDRERMVvrpc/PNwbi6RwL+eePBC5Gs/bpRMRaTIOQ4iINEzTtq6Y8n1XvD+uBZzczEWr2pZVlzF6cDCC/zyPnOz7oi3bpNvsuhsboaejg5w3x8ThalT+5TJERCVF5+H/pIFIA+e6olFIyUiVByJhyRGiISIiTcNhCBGRhvLsWgmzfuuJNz5rCktbQ9EWlp11H0F/hMBvUDC2/ntFtGVXBSdn2HXvgQFuBfYOCY/iRqpEVOIM9SvIA5EadoXvEBabFi8PROLuxIuGiIg0CYchREQarpNXNXy5whuvvd8ARib6oi1MulxmxZJTGPvGeuzZcEO0ZZO0kWoNU1N0tLeVc1BUNG7dvIX4zRvlTERUUiwMzeSBSEVrN9EoSCtDpIFIaoZ2bnxNRKTJOAwhIioleg2ujYDlXujzeh3oltMRbWEJMXfxx1fHMGXYZpw/kijassW4SlVYt2uvtHfIqohIxAYFikREVHIczOwwr6+//PVJV+KuywORezmZoiEiIk3AYQgRUSlSwUgfvu/Wl4ciXXxriFa1iJupWLP0KmZ9tl2+NW9ZI+0d0sDCHJ42+ZvNnkpJRcbNG0javUvOREQlyc3KBfO8/GFpZCEahXPRFzA+eBryHuSJhoiI1I3DECKiUsjC2hBDPm6MuX/2RtseVUSr2vULiVg8eR8Cxu3GpdNxoi39TOvWg4VHc3xRpyb6Ojvio6qV5T42mKtDiEg9qttVlQciRuWNRKNwLOyUPBAhIiLNwGEIEVEpZu9sindGe2Daj93RrH3h69ULCjkRi/mjd+G7aQdw60qyaEs3aXWIhb4+JtSqgebWVnJ350IIUo4clp8TEZW0ek615YGIrk7ht9n7bxzBlI1zRCIiInXiMISIqAxwq2qJjyZ7YvxXnVC/uZNoVTuxLwLTP9qKn+cdQXR4mmhLJ4tmHjCtV18khdhA3lmGiNSnqVtDeSCiyvbLezBra4BIRESkLhyGEBGVITXq2+F/s9vJD+n5sxzcdguT3tmIvxefQHJ8hmhLH0effuKZwu1TJ5B29oxIREQlr3WVFpjZe5JIyjaEbEPAzu9EIiIideAwhIioDJJWh0irRF77sDrcq+VfPvI0O4OvwW9wMFb/dAbpd7JFW3pYtWkL42rVRALWRcUgPiuLq0OISO061WiLL7r7iaTs3zPr8M3en0QiIqKSxmEIEVEZVtfDBlN/6IZ3RzeHg4uZaFXbtOKSPBRZ/3cI8u4/EG3p4OCdvzrkm2s3MOfSFXxy8gySD+7H3SuX5Z6ISF161emKMZ0/FUnZshP/4qdDf4pEREQlicMQIiIt0KZHZcz5o5d8BxpzK0PRFpZ1LxdrfzsvD0W2r70iWs1n27UbDF1d4WyY//+3iIx72BQTi9gg3lmGiNTPt0FvfNpuuEjKfj38D/48tlIkIiIqKRyGEBFpkS6+NRCwoi98362PCkZ6oi0sNekeln13CuOHbsC+zTdEq9mkO8v4ujjBzsBAzqsjopC4YxvuhYfJmYhInYY07Yfhnm+JpGzJ/l+x6nSQSEREVBI4DCEi0jLlyumiz+t1ELDcC70G14aOjvgHKsRF3cFvC49h6gdbcGx3uGg1k31fb5S3sUF/N2c5X067gz3xCVwdQkQa450WQzDUY5BIyr7atQTB5zaLRERExY3DECIiLWVkUh6vvd9AHop08q4uWtXCrqdgycyDmDNyB84eiRat5pFWh/R3dYGJXv6qF2l1SNz6YGQnxMuZiEjdRrR5BwOb+IikbO72Rdh6aZdIRERUnDgMISLScpa2Rnjj0yaY/VsvtO5WWbSqXT2fgEWT9uLLCXtw5VyCaDWHvbcPjExN0d81f3XIqZRUHEtO4eoQItIoI9t/CO/6PUVSNnXTPOy5dkAkIiIqLhyGEBGRzNHNDO+NbY4p33dF0zauolXt/LEYzP3fDiyZcRBh11JEq37lDCqI1SHO0BXX/6yOiERM4BrkZaTLmYhIE4zr8jl61O4skrIJ62bgSOgJkYiIqDhwGEJEREoq1bDGx1NbY2xAR9Rt5iha1Y7tCcfUD7fg14VHERt5R7Tq5ejjC6sKFR6vDjmQkITziUnI2LlDzkREmmJKjzHoUK21SMrGBU/D6chzIhERUVHjMISIiFSq1dAefnPb4/OZbVGtrq1oVdu/+SYmvLUBy749Kd+JRp30zC1gL1aHPCLtHZK+czse5OaKhohIM8zuOxmtKnmIpJCdmy0PRC7GlJ7bnBMRlSYchhAR0TM1bOmMiV93xoeTWsG1iqVoVdseeBV+g4Kx5pezyMxQ3+BBWh3ibGiI3k4Oct4WG4frcXGICVorZyIiTTLXyx+NXeuLpHAn8y7Gr5uOm4mhoiEioqLCYQgRET2X5h3dMX1pd7w9ygO2jiaiLSwv7wE2LLuIUYOCsHH5RTx4IP5BCTJwcIR9z97ynWUeOZyYjDgOQ4hIA+mX05MHInUca4pGIeFuorxCJO4u74pFRFSUOAwhIqIX0q5XFcz/uw8GfdgIZhYVRFvYvfQc/PvzWYweHIzYa/qiLTnSnWWqm5rg3Uru8iqRxpYWyIqLQ9yG9eLfICLSHKYGJpjn5Y8qNpVEoxCZGo2Awz8gKT1ZNERE9Ko4DCEiopfSrX9NBKzoC++366G8gZ5oC0tOyMCtUxUw8Z2NOLD1pmiLn1GlyrDp0AnDqlTCv57NUcvMVO5jg7k6hIg0k7WxFeZ5TYGLhZNoFMJvR8orRO5k3RUNERG9Cg5DiIjopenpl4PXm3XloUiPgbVEq1pMeBp+mX8U00ZsxfF94aItXtLqkCfdCw1FIu8sQ0QaytnCSV4hYmNsLRqFCzGXMT54GnLuczNoIqJXpRMaGlroau5ly5ZhyJAhIqlPVFQUnJ0VdwNQF004Dk35XvDcUMbjUPDw8MCwYcPkhzrxZ6KspI/jdlIWDmyKwvHdsaJ5uoo1zNCmlwuq1LUQTfFI+eZrZJ49LVI+fWnVyKQpIpUsnqPK+HtFmSYcB88NZer6ftxIDsXsA4uQnp0hGoVGDvUwrvWnIpUsTTg/+LqhjMehTBPOD/5MlGnquaHz4CHx/LGlS5di+PDhIqlPWFgY3N3dRVIfTTgOTfle8NxQxuNQcHJygp+fn/xQJ/5MlKnrOKJCb8ubpx7e8d93QJDuVtNzUG1Uq2sjmqJ1++QJXBo/Rn6e9/BXXkxmpryHSI1pM2HZylPuSxLPUWX8vaJME46D54YydX4/Tkeew8g1k+Tb7D6pQ7XW8m15S5omnB88N5TxOJRpwvnBn4kyTT03eJkMEREVOeeK5hg+oSW++KYLGnsq7uiiypnDUZj9+Xb8OOsQIm6kirbomDdpCrOGjeTnn58+h9cOHsXfYeGI5Z1liEjDNXKpL18yo8ruawcwffMCkYiI6EVxGEJERMWmSm0bfDq9DWq3z0Dtxg6iVe3IrjBMGb4Zv395DPHRRbtBoINX/t4hd3Lyr7NfHR6F26dPyQ8iIk3WomJTzHnKCpDNF3dg3vavRSIiohfBYQgRERU7c/v7GLOggzwYkQYkz7J34w2Me3M9li85hbTULNG+GqvWbeR9Qvq75l+vGp+VhbWR0YgNXCNnIiJN1r5aa3zi8Z5IyoLObcKiPT+IREREz4vDECIiKjHSJTPSpTPSJTTSpTTPsu3fK/AbGISg388jO+u+aF+ecafO6OXkAFcjQzmvjohEyuFDuHv5kpyJiDRZa7fmGN9lpEjKVp4MxJL9v4lERETPg8MQIiIqcS07V8TMX3rizc+bwtreWLSF5ebmIfivEPgNCsbmla82tDBs0QqGbu7o75q/h0loega2xMRxdQgRlRpe9Xvgfx1HiKTsz2Mr8NuRZSIREdF/4TCEiIjUpmPfali4rC8GDG8IEzMD0RZ2Ny0Lq5aewegh67B73TXRvjgHH1/5Uhnr8uXlvDoiCom7diIj9JaciYg03YBG3hjR5l2RlC09+AeWneCAl4joeXAYQkREatdjYC0ErOgLrzfrQk+/nGgLS4pLx59fn8AX723Coe0vPsCw790XBnb2j/cOuZiWhn0JibyzDBGVKkM9BuLdlq+LpOybvUux9uwGkYiI6Gk4DCEiIo1Q3kAP3m/Xk4ci3frXFK1qUaG38dPcI5jxyTacOhgp2ufj4O2D/m4uMCyXP3SRVofEb9yArNhYORMRlQbDWg3FkKaviaRswY5vsPHCNpGIiEgVDkOIiEijmFlUwKAPG2H+333QrlcV0ap281ISvpmyHwvH7sbFU883zLD39n34/4bl49UhJ5JT5EdsMFeHEFHp8mm7YXitYV+RlM3cEoCdV/aJRERET+IwhIiINJKtowneHuWB6Uu7o3lHd9GqduFkLBaM2S0PRm5cTBStarr6+vmrQ8QwRCKtDokNCkTO7duiISIqHfw6fYzedbuKpOyLDbNw4MYRkYiIqCAOQ4iISKO5VrHEh5NaYeLXndGwpWKAoYp0yczMT7dj6ZzDiLyVKtrCHLx9YWtsgtfEQETaNyQ+PR1x3DuEiEqhSd380KVme5GUjQuehhPhZ0QiIqJHOAwhIqJSoVpdW3w+sy385rZHrYb2olXt8I5QTH5/M/5cdByJsemiVdAzM3u8OsRET09+ZOflISZoLfKys8W/RURUekzvNQFtqrQQSSHvQZ48EDkffVE0REQk4TCEiIhKlbrNHDE2oCM+ntoaFatbiVa13euvY8zr6+Tb8mbczRVtPkeffnAzMsKqVh7Y0LYVnA0Ncf/uXa4OIaJSa66XPzzcG4ukkJGdIQ9ErsZfFw0REXEYQkREpVLTNq7wX9IN741tDkc3M9GqtnnlJXw15iTW/RWC3Jw8uStvZwe7Xn1gWb48DHQVvw5jAjkMIaLSSVdHVx6I1HeqIxqFlIxUjF83HeHJL3YHLiKisorDECIiKtVad6uM2b/1whufNoGlrZFoC8vJuo/A38/Db1Awtv57We6k1SFPyk5MQOy6IJGIiEoXQ/0KmOfljxr2VUWjEHM7DuPWTUNsWrxoiIi0F4chRERUJnTyro6A5V547f0GMDIpL9rC0lIzsWLJaYx9Yz2Ons+Bbecu4p8oxAUFimdERKWPhZG5PBBxt3IVjUJoUjjGB09D6r000RARaScOQ4iIqMzQ0QF6Da4tD0X6vF4H5co9/ddcQsxd/PHVcQRdcBANMOLEaXx26izSw8OQsH2baImISh97Uzt5IOJgZicahSvx1+WByL2cTNEQEWkfDkOIiKjMqWCkB9936yNghRc6+1QXrWohUYYIRUXEZWbiTOptHE9OwV+h4YjlRqpEVMpJK0OkgYilkYVoFM5GhcgDkQcP/0dEpI04DCEiojLL3KoCXv+kCeb80QuN2hT+6+gj5x/UhX2FCqhjnr8R66qIKNy9egXJB/bLmYiotKpuVxVz+06Bob6haBSOhZ2SByJERNqIwxAiIirzHFzM4PVOVUz9oRs82ruJViH6gROi4IwBrs5yTs7OxqrwSIQuXyVnIqLSrL5zHXmFiG6BO2c9su/6YUzZOEckIiLtwWEIERFpDfdqVhgx2RPjv+qE+s2dRJsv5EFddHWwR2UTYzmvjohC9tUQrBz3F6LDb8sdEVFp1cy9kTwQUWX75T2YvfVLkYiItAOHIUREpHVq1LfD/2a3kx/Sc0noA3fEPbDDAFcXOUfdu4fgqBjonNqBSe9swt+LTyAlIUP+Z0REpVHryi0wo/dEkZStD9mKhTu/E4mIqOzjMISIiLSWtDpEWiUy4otWcKtqiRDUgZezI5wN86+tXxURCTeEw14nDjuDr8Fv8Dr8+/NZZNzNkf85EVFp07lGO3zR3U8kZWvOrMO3+34WiYiobOMwhIiItJ5HB3dM+7E72vi9jjQ9G/QXe4fcvJuOrbFxqKcTIucHDx5g4/KL8BscjPX/XMD9+7wLAxGVPr3qdMXoTp+IpOyf46vx06E/RSIiKrs4DCEiIhLa9qiChp++hQFuLrAuX17uVoVHoQpuwBrJcpZkZuRg7a/nMHpwMLavvSJaIqLSo1/DPvi03XCRlP16+B/8dZwbSBNR2cZhCBERUQF2PXujgr2DPBCRXExLw974RNTRPS/nglKT7mHZd6cwfugG7Nt8Q7RERKXDkKb9MMxzqEjKvt/3C1adChKJiKjs4TCEiIjoCQ4+vvKlMsZ6enKW9g6phSswwx05Pyku6g5+W3gM/h9swfE94aIlItJ877Z4HUObDxJJ2Ve7l2Dd+S0iERGVLRyGEBERPcHB2xdm1tYYIPYOuZSWPwTpUTVS/vo04ddT8P2Mg5j7v504dzRatEREmm1E63cwsLG3SMrmbPsKWy/tEomIqOzgMISIiOgJOuXKwcHLB8OrVMKYmtXxZaP6cm8ZehAzvm4Nz66V5Pw0V87F46uJe+WH9JyISNON7DAC3vV7iqRs6qZ52Hv9oEhERGUDhyFEREQq2Hv7QtfAAL4uTmhoYS53D/Ly8OD4Nrw/rgWmfN8NTdu6yv3TSKtDpFUiS2YcRNg1xQasRESaaFyXz9G9VieRlI0Pno4joSdEIiIq/TgMISIiUkHPxAQO3j4iKcQGBeJ+ZiYq1bDCx/6tMS6gI+o2cxT/VLVje8Ix9cOt+HXhUSTF3RMtEZHm8e85Fh2qtxZJ2bjgabiceE0kIqLSjcMQIiKip3Dw8hXPFO5npCMuaK1IQM2G9vCb2x6fz2yLqnVsRKva/s038c2E0/IdaFKTORQhIs00u89ktKzUTCSF7NxsLDz0PS7FXhUNEVHpxWEIERHRU5S3tYV9Xy+RgAWXr2JbbJy8OuRJDVs6Y9LiLvhgYku4VrYQrWrb117B6EHrsPbXc8jMyBEtEZHmmOvlj8au+fslFXQ3O11eIXIzMVQ0RESlk05oaOgD8fyxZcuWYciQISKpT1RUFJyd83fyVydNOA5N+V7w3FDG41Dw8PDAsGHD5Ic68WeiTFOOQxNeO172e3E/Lhbxk8YjKCoa8y7l/zV0davmqPP+MBh17CxnVU7sicXBzdFIScgUjWoVjPTQuqczPHs4QUdHR7TFj+eGMv43q8BzQ5k2nxsZORmYtW8RbqQUHnw4mNhhQpvPYW9sK5qSw3NDGY9DWWl+z1HUeBzKnjw3dB48JJ4/tnTpUgwfPlwk9QkLC4O7u7tI6qMJx6Ep3wueG8p4HApOTk7w8/OTH+rEn4kyTTkOTXjteJXvxfX5c7Dn338x7PgpOQ9wdcGEju3R8Pe/5PwsW/+9jE3LLyEt9dlDEUtbI/QaVAudvKuLpnjx3FDG/2YVeG4o0/ZzI/FuEkaumYQbibdEo1DVthK+6jcbNsZWoikZPDeU8TiUlfb3HEWJx6HsyXODl8kQERH9B0effqhrbobWttZyXh0RiehbN5GwbYucn6XbazURsMILPm/Xg75BOdEWlpKQgb+/OYmJ72zEwW2FP3QQEamDjYk15nn5w9mi8EbR1xNuYXzwNNzNShcNEVHpwWEIERHRfzCuVh3Wbdqiv6uLnKUllasjohAbqNhI9Vn09HXR9826+HKFN1p1dxKtajHhafh53hFM/2gbTuyPEC0RkfpIg5B5ff3lwciTLsRclgciOfdzRUNEVDpwGEJERPQc7L194WFlicaW+ZujSsOQpCuXkbRvj5yfh4lZeXQdUBEL/umLDn2qila1W1eS8N3UA5jvtwshx2NES0SkHlVsK8krRIzLG4lG4WTEWXkgQkRUmnAYQkRE9BzM6jeARdNm6O+avwFYem5u/uoQFXeW+S82DsYYOrIZZv7cEy07VxStapfOxCFg/B58/cU+XAtJEC0RUcmr7VADo1t9BP1y+qJROHTrGCatnykSEZHm4zCEiIjoOTl4+6K9nS1qmpnKWRqG3Dl/DqnHjsr5RTlXMsfwCS3xxbdd0dgz/xKcpzlzOAqzP9+BH2YdQuTNVNESEZWsWjbV5RUiquy6uh/TN88XiYhIs3EYQkRE9JwsmreAaZ26j1eHJGRlYW1kNGKDX3x1SEFValnj0+ltMGZBR9RubC9a1Y7uCsPkYZvxx1fHkRBzV7RERCWnZaVmmNN3ikjKNl/ciXk7FotERKS5OAwhIiJ6AdLqkJ6ODnAzyr9uflVEpLwyRFoh8qqkQYg0EPlkWhtUrlV4o8KC9my4jrFvrMeKH07/5217iYiKWvtqnvDvMVYkZUFnN2LR7h9EIiLSTByGEBERvQDr9h1gVLnK49UhYekZ2BIT91J7hzxNk9YumPxtVwwb3wLOFc1Fq9rW1ZfhN2gdgn4/j+ws3s2BiEpO99qdML7rSJGUrTwViB8O/C4SEZHm4TCEiIjoBUmrQ15zdYaNQXk5n0lNle8qk379mpyLSqsulTDzl54Y+nlTWNsbi7aw3Jz7CP4rRB6KbF55SbRERMXPq14PjOzwoUjK/ji6HL8dWSYSEZFm4TCEiIjoBdn16IkKTk6YUqcWOtrbYoBr/uancUW4OqSgDn2rYeGyvhgwvCGMTfMHMKrcTcvCqqVnMHrIOuxef120RETFa2BjH4xo865IypYe/APLT64RiYhIc3AYQkRE9BIcvPuhmZUlZtWrg8om+as24rduRmZUpPy8OPQYWAtfrvRG3zfrQE/v6b/Ck+LS8eei45j8/mYc3hEqWiKi4jPUYyDebfG6SMoW71mKtWc3iEREpBk4DCEiInoJDt4+0Le0FEkhJnCteFY8yhuUg8/b9RGwwgtdX6shWtUib6Vi6ZzDmPnpdpw6WHxDGiIiyTDPoXi96WsiKVuw4xtsurBdJCIi9eMwhIiI6GXo6MDBp58ICnHBgchJThKp+JhZVsDgEY0x768+aNerimhVu3ExEd9M2Y8FY3bj4qlY0RIRFb1P2g1Dv4Z9RFI2Y8tC7LyyTyQiIvXiMISIiOglOXj5QLdCBfn5vfv3sSsuQX5e3KtDCrJzMsHbozwwfWkPtOjoLlrVpEGINBCRBiORN+6IloioaI3u9Al61+0qkrIvNszCwZtHRSIiUh8OQ4iIiF5SOSMjOIrVIX5nzmPS+QuYcv4i4oLW4n5GutyXFNcqFvhgUitM/LoLGrRwEq1q0iUzP886j5/mHkFU6G3REhEVnUnd/NC5RjuRlI0LnoYT4adFIiJSDw5DiIiIXoG9t4/81dXIUP66PS4elxMSEVtMd5b5L9Xq2mDkrHYYNbc9ajawE61qh7bfwhfvbcJfX5+QN10lIipKM3pPRJsqLUVSuJ93Xx6IhMTwVuBEpD4chhAREb2C8lbWcPD2fXx7XcmqiCjEBq3Fg7w80ZS8es0cMe7LTvjYvzUq1rASrWq71l2Tb8cr3ZZXuj0vEVFRmevlj2ZujURSyMi+Jw9ErsXfEA0RUcniMISIiOgVSXeWqWJijK4O9nLeEB2Dm1HR8maq6ta0rSv8v++G98a2gKObmWhV27zyEvwGBSP4rxDk5NwXLRHRy9PV0cE8L3/Ud64jGoXk9BR5IBKWzLtdEVHJ4zCEiIjoFVVwdoFttx4Y4OosGml1SKS8OkRTtO5WCbN/64U3Pm0KK1sj0RaWnXUfQb+fx+hBwdi6+rJoiYhenmF5Q3kgUt2u8J2vYtLiMD54GuLu5G9ATURUUjgMISIiKgLS6pA65mZoa2sj538johBx6xbiN2+Ss6bo5F0NAcu90KmfGwyN9UVbWFpqFlb8cBrj3tyAvRu5jJ2IXo2Fobk8EHG3chWNQmhyuDwQSb3HDZ2JqORwGEJERFQEjKtWg1Xb9hjgVmDvkHBp75A1ImkQHaBNLxcErPBC7yG1oav7sHiK+Og7+P3LY5gyfAuO7goTLRHRi3Mws5cHIvamhTd3vhx3TR6IZOZy3yIiKhkchhARERURRx9fNLG0QHPr/A1LpUtl4q5cRdKe3XLWNIZG+uj3XgN5KNLFt7poVYu4kYIfZh3C7M934MzhKNESEb0YaWWINBCRVoo86WzUBXkg8uDBA9EQERUfDkOIiIiKiGnderBo1hz9xd4h2Xl5+XuHBGrg6pACLKwNMeTjJpjzR2+06VFZtKpdC0nA11/sQ8D4Pbh0Jk60RETPr4Z9VXkgIu0l8qSjoSflgQgRUXHjMISIiKgIOfj4wtPGGg0s8v/qKd1mNznkPFKOHJazJnNwMcW7o5tj6g/d4dHeTbSqhRyPwXy/Xfhu6gGEXk0WLRHR85HuLiMNRKS7zTxp343DmLJxrkhERMWDwxAiIqIiZNHMA2b1G2CAa/7eIWk5OTiUmKxRd5b5L+7VLDFisifGf9kJ9TwcRavaif0RmDZiK36ZfxQx4WmiJSL6b83cGmGul79IyrZf3o1ZW78UiYio6HEYQkREVMQcvHzQ0d4WXR3sYaGvj0omRrh98gTSzp4R/0bpUKOBHUbNaY+Rs9qhej1b0ap2YOtNTHxnI/7+5iRSEjJES0T0bG2qtMSM3hNFUrYhZCsCdn0nEhFR0eIwhIiIqIhZtW0H42rVMK1uLWxu5wk3IyO5L02rQwpq0MIJExZ1lleLuFe1FK1qO4Ouwm9wMP79+Swy7maLlojo6TrXaIdJ3fxEUvbv6XX4dt/PIhERFR0OQ4iIiIqBg7eveKaQfGA/ckJviVT6SPuITP2xO94Z3Rz2LqaiLUy6EcTG5Rflocj6fy4gL493hiCiZ+tdtytGd/pEJGX/HF+Nnw/9JRIRUdHgMISIiKgY2Hbtjgou+fuGFJSxa4d4Vnq17VEZc//oLd+BxtyqgmgLy8zIxdpfz2HUwCDsCLwqWiIi1fo17INP2g0TSdkvh//GX8dWiURE9Oo4DCEiIiomBVeH5OTlITUnBxmHDuJeRLhoS7cuvtURsNwLvu/Uh4GhnmgLu52ciX++PYkJb23A/s03RUtEVNjrTV/DcM+hIin7fv8vWH06WCQiolfDYQgREVExkTZSLW9tLT//4MRp9Nh7EHviExAXFCh3ZUE5PV30eaOOPBTpOaiWaFWLjbyDXxcexdQPt+DYnrIxECKiovdOi9cx1GOgSMq+3PU9ruaU3ssNiUhzcBhCRERUjOzF6pCIjHvy19URUYhdF4TsxAQ5lxXGpuXRf1hDBKzwQievaqJVLexaCpbMOIi5/9uJ1JinryghIu01os27GNjYRyRlBzNPYdvl3SIREb0cDkOIiIiKkaNPP5QzMkJ/V2c5n0pJxbHkFMQEls47y/wXK1sjvPFZU8z+rRc8u1USrWpXzsXj0j5DfDVxL66eL1vDISJ6dSM7fAivej1EUua/cS72XjsoEhHRi+MwhIiIqBjpGhjIAxFpGKKroyN3qyMiERe0Fvfv3pVzWeToZob3x7bAlO+7oUmbwhvJFnTuaDTmjNyBJTMPIfx6imiJiIDxXUeie+1OIikbv246joaeFImI6MXoODo6FrrfXUZGBoyMjERSn/v376NcuXIiqY8mHIemfC94bijjcSjExcXBxMQExsbGolEP/kyUacpxaMJrhzq/F+Z6evilemUsvnYDK8Mj5e6nZo0Rkp2DVfGJci5pJf39sDauhkrWHR5+rSGap4tKPYabSTuRkV1y3xv+N6vA1w1lPDeUqes4bPu6waiauUgKD3IfIH7NLWRGpoum5PDcUKYpx6Ht7zkK4nEoe/Lc0Fm4cGGhYciRI0fQokULkdQnJSUFlpaWIqmPJhyHpnwveG4o43EoTJ8+He3atZMf6sSfiTJNOQ5NeO1Q9/ei0qULeHD5Il47eFTOXR3s8UXjBjjevjMe6Jb8Qk11fT/S4iog8aYJMlLKi+bprCumw6byHehXyBNN8eF/swp83VDGc0OZOo/jAE4hFoWHpOWhjzZoDEsUHpYUJ/5MlGnKcfA9hwKPQ9mT54bOg4fE88eWLl2K4cOHi6Q+YWFhcHd3F0l9NOE4NOV7wXNDGY9DwcnJCX5+fvJDnfgzUaYpx6EJrx3q/l5kxkTjzNDXMeviZWyIjpW7f1o2Q4dRY+D4Wn85lyR1fz+O7AzDphUXEXEzVTSq6ZbTQa9BtdFrcO1n3r73VfG/WQW+bijjuaFMnceRcz8Hn/87Eacjz4lGwc7UBl/1m43K1iV3bPyZKNOU4+B7DgUeh7Inzw3uGUJERFQCKjg6wa5HL/R3VeyfsTo8CrHBZXMj1f/SopM7pv/UA1WaZcHG4emX1+Xdf4D1/1zAqEFB2LTikmiJSBvpl9PHPC9/2OgW/gtz/J1EjA+ehqjUGNEQET2bymFInTp1xDMiZZ06qd7AiojoWTp27CieaTcHbx9UNzVBRztbOQdFRSM8NBTxGzfIWRt16FMNC/7pi4EfNoKphYFoC8u4m4PVP52B3+Bg7Ay+Jloqy9q3by+eESmYVjDBlM6jUdmmomgUIlKi5IFIUjo3Yiai/6ZyGOLp6SmeESmrUqWKeEZE9PyqVq0qnmk3o8pVUMGj+ePb7EpWR0QhNkg7V4dIHr3n6N6/JgKWe8H7rXoob/D0TdaS4zPw9+ITmPTORhzcdku0VBZVr15dPCNS1qxeU3mFiLOFo2gUrifekgcid7NKfkNV0gx2dnbiGZGyJ/cteeplMtL1/2PHjhWJtN0PP/wAHR2dxw+eG9pD2mTo0c994MCBoiV6PtLvkoKvHQQYd+yMhpYWaG5tJedVEVHICL2FxF075ayNHr3n0C9fDl5D68pDke4Daol/qlp0eBp+nncE0z/aihP7IkRLZUXB1w1N2ESVNMej88LV0hl5B+7CxsRa/BOFkJhL8kAkNy9XNFSWSe9PC342ad26tfxV6h6dL9LvGdI+0mfYgr9DHq04lM4Z6bxQOQyRTpyYGF5vR/m2bduGESNG4Pr165D225W+LliwQD65qGyTXjykzY6kn7v02L9/Pwdh9Nyk86dNmzaPz58BAwbwzchD5atWg0WLlo9Xh1iV10fuw+9PbOAaOWsbVe85TMwNMPCDhvLlM9JlNM9y60oyvpt2APP8duLCifyNaal0k96gSq8Xj147JBzGk0T6vVLw3Diy9RBcwq1gYmAi/g2FkxFn5YEIlW3Sa8OqVatEymdjYyP/bvn7778fnyvS+xEOVrWL9FlV+gxbkK2trXxuSJ9ppPOi0DDkxo0b8onj6Fh42Rlppx07dsi/eKRLZKQ3rNJXKe/evVv8G1QWSa8FR48exezZs0UDTJkyRX59IHoeBc+f27dvy8+l1xDp3NJ2jt6+8LSxxspWHvjFown0Hn74u3v5ElIOHxL/hnb4r/cc0saqQ0c2xcyfe6Jlp2fvQn/5TDwWjtuNxZP34fqFwrfepNJBepMqnQ8rV64UTf6tEAtm0l7S75X33ntPJOCNN97A6Z0n5EtmypfTF63CwZvHMHH9TJGoLJH+WCsNTqUPtc2bNxetgvS7RXrf+oj0HkQ6f/geRDtI54Y0CJE+sz5p3759j8+NQsOQ119/Hb///rtIRMD8+fMfvwnJycmRv2rK7ZGo+Dz6ZVFwn5guXbrwwyw9N2ni/uj8MTQ0VHlOaSvzJk1h1qAh3IyMYF2+vGihdatDnvc9h3Mlcwyf2AqTvumCRp6K/VZUOX0oCrM+244fZx/+z9v2kuaR3l9If8ElUkX60PvLL7+IlP+Bt23btmjsWh9zvfxFq2z31f2YvnmBSFSWbN26FdHR0SIpk96vVq5cWaT89x7SoHX79u2iobJszJgx8vtQVZ9XpQH7hx9+KD9XGoZIS0mk/4OuXbuKhkiZm5ubPImVJqsffPCBaKksunnzJleIUZEp//ADvzSFVzWh11YOPr7imcLt06fkhzZ4mfccVWvb4LPpbTF6fgfUbmwvWtWO7AzFlGGb8cdXx5EQc1e0pOke/bFFWs4u/WVPevASGXpE+hAjeXRuSL9XpD/aSVpWaobZfSfLz5+0+eIOzNu+WCQqC6TfHU/7/cE/vtCj14Un7dypvD+b0jBEWkrCZYj0LNIgpFu3bliyZAlfYIjouUkfbMLDw/k7pgArzzYwqVFTJAVtubPMq7znqNPEAWMWdMSn09qgcq3CmycWtGfDdYx9Yz1WLDmNtNRM0ZImk/Ylmz59+uNr/aVl8ByIkEQagEjDskfnhrSyrOA+EB2qtYZ/T9V7mwWd24iv9/woEhFpoydXt+s+egGRfslIH3BJuz3rzg/SX/EeDUIeLS2isktaWvjkpoZEL0N6XZEGIU9byqrNHLx95K95D9/UDzt+CvMvX0XKoYPy/iFlWVG952jc2gWTv+2KYeNbwsndTLSqbf33MvwGBSPojxDkZN0XLWkiaXmz9Bffc+fOyVn66780ECHtJr0PlVasSn/xTUtLk7t//vmn0D4Q3Wt1wrgun4ukbMXJtfjhwG8iUVn16A+2vKybniRd5fCI9F5E99FyM2kXXumvNI8+BEsfgqTJPHfd1S7Sh5VH03bp8cij3Xila/M4CNEOqn6RSNdZSm9EuCqInpc0CJF+8XAQoppN564wdHPH6dTbCLmdhsDIaOyMiy/zq0OK+j1Hqy4VMevXXnjzs6awtjMSbWG5OXkI/vM8/AYHY8uqy6IlTSLt//CItOs/kSrp6enimWre9XtiZAflu0g88sfRFfj96HKRqKyS3q9Kl3w/Ir2flX7XSPvfkfZq166d/FUahEjvRR5fJlPwA7D0kE4gaTL/aFhC2uvRrXWlQQj3k9Ee0sBD2qhM2uDwEWnZsrRzO9HzkD7YSoMQ/h55Nml1SH1zM5jr598JYVVEFBJ37kBGaKicy6Lies/R0asaFi73Qv9hDWFsqtiY9kl3bmdh5Y+nMeb1ddi9/rpoSRNI+5FJgzHpg4t0Xkik9yD83UPSH+OkD7OP7jgkkd6jSO9VVP2RZmBjb4xo/Y5Iyn488DuWn9DO25lrA+n3ivSaIb12PDJx4sSnniukPaQN/aXXEGkQIp0nhe4mQ/SkR7ceki6RefRXPOnBVUNln/TBRLq84dHPXNrh/2kbEhEV9GijZelR8HVDekj/jBTs+3jB2N4BA1zz75JyLvU2DiYmIS5YO/YOKQ49B9VCwAov9H2zLvT0n/5WJzE2HX8uOo4v3t+Ec4cTREvqJH1QuX79OqpWrfr4NUPaeJm/e0gifXiRhmWPzg3Js4aoQ5sPwrstFX/UKWjx3qUIPLtRJCpLYmNj5dcM6bXj0bkiXWrHP86QRHoNkUjnxVPfIUhLmvmLhyTSC8ejv94VfPAFRTsUvHSKm1/S85JWkRV8vSj44AqzwqTVIQPcXGCgm/9reVV4JOI2rEdWXJycy7rieM9hUEEPPm/XQ8ByL3R7rfBGtQVF3bqNtT9dw8xPtuHUwUjRkrpIA5GCrxn83UMFFTw3nue96LBWQzGkaT+RlM3fsRibLvBWq6WddB4U/B1y6NAh+av02vHoXOHlutpJOi+efJ0o+Bqichhy8eJF8YxIWWgZXrZNRMWHrx3P5ujTDxYWlvJARHIsOQUnHj7itODOMsX9nsPMsgIGjWiEeX/1Qduez14efeNSEr6Zsh8Lx+7GxVPaMYjSZElJSeIZkbKEhBdbyfVpu+Ho17CPSMpmbFmIXVf3iURlAV876GnOnDkjnuVTOQw5cOCAeEakjMvbiehl8LXj2XT09WEvrQ4Rl8pIVkdEISZoLXLFXRPKqpJ6z2HnZIJ3/Dww7cfuaN7BXbSqXTgZiwVjduFb//24eYlvqtVlzRru6UCqBQYGimfPb3SnT9CrjuqViZPWz8LBm0dFIqKy6tixY+JZvqdfSEtEREQlRlodYmtsjP5iILIvIRHnk5IRE8gPhEXJraolPvyiFSYu6owGLRTDJ1VOHojEjE+24ae5hxEVelu0RFRafdHdD51r5N9N4knjgqfhZLjyX42JqGzjMISIiEgD6JmZwdHbFwNc8y+VkayKiERcUCAe5OSIhopKtXq2GDmrLUbNbY+aDexEq9qh7aH44r1N+PPrE0iKe/YtPYlIs83oPRGtqxS+CcD9vPsYt24aQqIviYaIyjoOQ4iIiDSEvbcvXIwM0ccp/7aR22PjcSU2lqtDilG9Zo4Y92UnDPioBirVsBKtarvXXcPoIeuwaukZpN/JFi0RlTbz+vqjmXsjkRTSszLkFSJX42+IhojKMg5DiIiINISBvT3se/fBADfF5RvS6pDYoBe/Pp5eTO2m1pjyfTe8O6Y5HFxNRava5pWX4DcoGOv+uoDc3DzRElFpoauri3le/qjnVFs0CskZKRgfPA3hKbyzFFFZx2EIERGRBrH38kVVExN0sc+/dONS2h1kJ8Qjbn2wnKl4teleGXN+743XP2kCSxtD0RaWlZmLwN/PyUORbf9eES0RlRaG+obyQKS6XVXRKMSkxckDkbg7L3bXGiIqXTgMISIi0iBGFSvCplNnTK9XGyOqVsbk2jXlnqtDSlZnn+oIWO6F195rAENjfdEWlpaSieVLTmHcm+uxdyOX1hOVJpZGFvJAxM1SsVfTI7eSwuWByO17ZfuOXkTajMMQIiIiDePg7St/HVrRDdVMTeTn98LDkLiDtyguSTq6Oug1pDYCVnih95A60H2YnyY++i5+//IYpgzfjCO7wkRLRJrOwcxOHojYP/z6pMtx1zB+3TRk5mSJhojKEg5DiIiINIxJzVqwbOUpkgJXh6iHoZE++r1XXx6KdPGtIVrVIm6k4sdZhzD78+04eyRatESkySpau8mbqloYmYtG4UxkiLxChIjKHg5DiIiINNCj1SEF3b1yGckH94tEJc3C2hBDPm6MOb/3QuvulUWr2rWQRCyatBdfjt+Dy2fjRUtEmqqGfVXM7TsFhvoVRKNwNOykfJcZIipbOAwhIiLSQOaNGssPSXZeHpZcv4mLaWmIDVwrd6Q+Dq5meG9Mc/gv6YZm7dxEq9r54zGYN2onvpt2AKFXkkVLRJqogXNdzPXyh65O4Y9I+64fwpSNc0QiorKAwxAiIiIN5eDTT/669MYt/BkajrFnQpB29gxunzwh96ReFatb4aMpnhj/ZSfU93ASrWon9kVg2kdb8cv8I4gJ54aMRJrKw72xPBBRZfvlPZi97SuRiKi04zCEiIhIQ1m2bCXvHyLdaleSlJ2N1RFRiAni6hBNUqOBHf43px1GzmqH6vUKb8JY0IGttzDxnY34+5sTSEm8J1oi0iRtqrTA9F4TRFK2/vwWBOz6TiQiKs04DCEiItJg0uqQ7o72qGhsJOfVEZFIPXIYdy6EyJk0R4MWTpiwqBNGTPaEWxVL0aq2M+gaRg0KwppfzuJeeo5oiUhTdKnZHpO6+Ymk7N/T6/Ddvl9EIqLSisMQIiIiDWbTsROMKlZCf1cXOUdk3MPG6FjeWUaDebR3w7Sl3fGOnwfsnPNX9aj0ANiw7CL8BgXLX/PyHhZEpDF61+0Kv04fi6Ts7+Or8O/F9SIRUWnEYQgREZGGk+4s4+viBDsDAzlLl8ok7dmFjJs35EyaqW3PKpj3Zx8M/qgxzK0K36HikXsZOfIKEWkocmR7jGiJSBO81rAvPm03TCRl0jBEGooQUenEYQgREZGGs+vVGwYODujv5iznK3fuYHd8AleHlBJd+9VAwHIv+L5THxUM9URbWGrSPWxZfgsT3tqA/ZtvipaI1G1I09cwrNVQkZRJl8usPh0sEhGVJhyGEBERlQIOXr7ypTImevkfpqXVIfGbNyIzJlrOpNnK6emizxt1sHC5F3oOqi1a1WIj7+DXhUcx9cMtOL43QrREpE7vtnwdQz0GiqTsy13fY33IFpGIqLTQCQ0NLXSB6rJlyzBkyBCR1CcqKgrOzvl/BVMnTTgOTfle8NxQxuNQ8PDwwLBhw+SHOvFnokxTjkMTXjtK/c/k/n3EjR6JH86cw2+3wuRqUaP66DhwEMwGvfj3lueGspL+fqSlZGP/hkgc3x0rmqdzr2GGNj1dULWehWiKF88NZaX+taOIacJxqPPc+OPMSmy+vlMkZZ96vA9PNw+RSg7PDWV8z6HA41D25Lmh8+Ah8fyxpUuXYvjw4SKpT1hYGNzd3UVSH004Dk35XvDcUMbjUHBycoKfn5/8UCf+TJRpynFowmtHWfiZRP79J87/9CN67z+MvIe/vj1trLGwUX00WbUW+hYv9kGZ54YydX0/osNuY9OKSzi47ZZonk66W420qqR6PVvRFA+eG8rKwmtHUdKE41D3uTF3+yIEn9sskrJ5Xv5oW7WVSCWD54YyvudQ4HEoe/Lc4GUyREREpYSjty+sTUzQ3zX/rysHE5MQknobcUFr5Uylj5O7Od4f1wKTv+uKJm1cRava2SPRmDNyB5bMOIiw6ymiJaKSNr7LSHSr1VEkZeOCp+Fo6AmRiEiTcRhCRERUSpQzMYG9t7R3iGKp6ZnUVMQErkFeVpZoqDSqXNMan0xtjbfG1EHdpo6iVe3YnnBM/WALflt4FPFRd0VLRCVpas9x8HBuLJKyccHTcTYqRCQi0lQchhAREZUijj6+cDY0xNia1eFhZYku9na4n5EhD0So9KtUyxx+89rj8xltUaW2jWhV27f5JsYNXY/l35/C7eRM0RJRSRnV8kO0qNhUJIWs3Cx5hciluKuiISJNxGEIERFRKVLexhYOfb3h4+KErxs3gH2FCnLPS2XKloatnPHFN10wfEJLuFR69n4w29Zcgd/gYKz97Ryy7uWKlohKgrRHSCOX+iIp3L6XhvHB03AzMX/DayLSPByGEBERlTL23j7imUJ2UhJigwNForKiZeeKmPFzD7z1v2awdTARbWH3c/Ow/u8L8lBk04qLoiWi4lZer7w8EKnlUF00CvF3EuWBSPTt/75rFBGVPA5DiIiIShlDVzfYdukqkkIsV4eUWe17V8X8f/pg4IeNYGqRvxpIlfQ72Vj901n4DQrGzmAu0ScqCaYVTOSBSGWbiqJRiEiNkgciSenJoiEiTcFhCBERUSnk4O0rngGJWdk4mpSMzMhIJGzbIloqi7r3r4mA5X3h/VY96Jd/+tu45IQM/L34JCa+sxGHtoWKloiKi62JjTwQcTIvvAHytYSbGB88HenZGaIhIk3AYQgREVEpZFy9Bqxat5Gff376LEaePocfb9zi6hAtoF++HLyG1sWXK7zl4cizxISn4ad5hzHj4204uT9StERUHFwsnOSBiI2xlWgUQmIuyStEcvO4rw+RpuAwhIiIqJR6tDrEQl9f/ro6IgpJly8jed9eOVPZZmJuIF82M//vPvJlNM9y83ISvp26H/NH70LICe5fQFRcqtpWwlwvf5gaFN7j50T4GfkuM0SkGTgMISIiKqXMGjSEeZOm6O/qLOf03Fx5IMKNVLWLraOJvMGqtNFqy06F9ywo6NLpOASM243Fk/fh+oVE0RJRUarjWFMeiOiX0xONwqGbxzBp/SyRiEidOAwhIiIqxaTVIe3tbFHTzFTO0jAk7dxZpB4/JmfSHtIteIdPbCnfkreRp4toVTt9KAqzPtuOH2cfQsTNVNESUVFp7FpfHoiosuvqPkzfvEAkIlIXDkOIiIhKMcsWLWFau87j1SEJWVlYGxmN2EDuHaKtqtS2wWfT22D0/A6o1chetKod2RmGKcM244+vjiMxNl20RFQUWlXywOy+k0VStvniDszf8Y1IRKQOHIYQERGVcg4+/dDT0QFuRkZyXhURidTjR3En5LycSTvVaeKAsQs74pOprVG5prVoVduz4TrGvL4OK384jYw73OCRqKh0qNYaU3qMFUlZ4NkN+HrPjyIRUUnjMISIiKiUs27fAUaVKz9eHRKWnoEtMXGI4eoQeqhJG1dM/q4r3h/XAk7u5qJVbcvqy/hy9AkE/XEe2Vn3RUtEr6JH7U4Y1+VzkZStOLkWPx78XSQiKkkchhAREZUBDt798JqrM2wMystZ2jsked8eZNy4Lmciz66VMOvXnnjzs6awtjMWbWG5OXkI/jMEfoODsWXVJdES0avwrt8TI9t/KJKy348slx9EVLI4DCEiIioD7Hr0RAUnJ/R3zd8482JaGvYlJHJ1CBXS0asaFi7viwHDG8LY1EC0hd29nYWVP56RL5/Zvf6aaInoZQ1s4oMRbd4RSZm0OkRaJUJEJYfDECIiojJCurOMdKmMYblycpZWhyRs3YzMqEg5ExXUY2AtBKzoiz5v1EE5vae/JZQ2Vv1z0QlMfn8zDu8MFS0RvYyhHoPwToshIimT9g8JPLtRJCIqbhyGEBERlRH2Xj4ws7F5vHfIieQUxGVmITYoUM5ETzKooAffd+ojYHlfdO1XQ7SqRd5KxdLZhzHr0+04fZADNqKXNdzzLQxp+ppIyubvWCzfaYaIih+HIURERGWEjq6uWB3igkrGxvLdZcz09RAbtBbZyUni3yIqzNzKEIM/aoy5f/ZG47bPvh3v9YuJWDxlPxaO3Y2Lp+JES0Qv4tN2w+DboLdIyqZvXoBdV/eJRETFhcMQIiKiMsTB2wf25mZY1rIZVrbyeHzJTBxXh9BzsHc2Rd+3q2Daj93RvIO7aFW7cDIWC8bswjf++3HzEodtRC9qTOdP0atOV5GUTVo/C4duHhOJiIoDhyFERERlSDkjY9h7+4qkEBO4BvczMkQieja3qpb48ItWmPh1ZzRskX/Z1dOcOhCJGZ9sw09zDyM6LE20RPQ8vujuh0412oqkbFzwNJwIPyMSERU1DkOIiIjKGEefwsOQvMxMxAZzdQi9mGp1bfH5rLb435x2qNHATrSqHdoeiknvbsRfi08gKZ6DN6LnNbP3JLSu0kIkhdy8XIwPnoaQmMuiIaKixGEIERFRGaNvZS1vplpQ7oMHiA1cAzz8SvSi6ns4YfyXnfDRFE9UrG4lWtV2BV/D6MHBWL30DNLvZIuWiJ5lnpc/mro1EkkhPTtDHohcS7gpGiIqKhyGEBERlUGPVockZ2ej7/7DeO3gEYRHx/DOMvRKmrVzg/+SbnhvTHM4uJqJVrVNKy/Bb1Aw1v0VgtycPNESkSq6OrqY5zUF9Zxqi0YhKT1ZHoiEp/AuTkRFicMQIiKiMqiCswvsuvXA/QcPkJCVJd9id1VEJGKD1oh/g+jlte5eGXN+74XXP2kCSxsj0RaWlZmLwN/Pw29wMLb+y6X+RM9iVN5IXiFSzbaKaBSib8fKA5H4O4miIaJXxWEIERFRGWXv7QNbAwN42ljLeVVEFGJCQxG/eZOciV5VZ5/qCFjRF6+91wCGRvqiLSwtJRMrlpzGuDfXY9+mG6IloidZGlnIAxE3KxfRKNxKCpcHIrfvcaNioqLAYQgREVEZZVy1Gqzbtkd/1/y7geQ9eCAPRGKD1sqZqCjo6Oig15DaWLiir/xVyk8TH30XvwUcg/8HW3B0d5hoiaggR3N7eSBib2orGoVLcVflgUhWLvfjIXpVHIYQERGVYQ7ePmhubYUmlhZyXhUeiaRrV5F5/JiciYqKkXF5eYWItFJEWjHyLOHXU/DDzEOY/fkOnD0SJVoieqSilRvmevnDwtBcNApnokLk2+4S0avhMISIiKgMM61XHxYezTHALX/Jdcb9+/JAJH3ndjkTFTVpDxFpLxFpT5E23SuLVrVrIQlYNGkfvhy/B5fPxImWiCQ17athrtcUGOpXEI3C0dATHIgQvSIOQ4iIiMo4By8ftLW1QR3z/Lt/SJfKZF67itSjR+RMVByku828O6a5fPcZ6S40z3L+eAzm+e3Cd9MOIPRqsmiJqIFzXXmFiM7D/z1p3/VD8N80VyQielEchhAREZVx0soQaYXIALF3iHS73dXcO4RKSMXqVvhoiifGf9kJ9Zo5ila1E/siMG3EVvy64Cgy75QTLZF283BvLA9EVNl2aTd+PPGnSET0IjgMISIi0gLS3iFdHexRxcRYztJtdlNPHEfaubNyJipuNRrYYdTc9hg5qy2q1S28MWRB+7fcxOlNRvjn25NISbwnWiLt1bZqS0zvPUEkZbtDD+DLXd+LRETPi8MQIiIiLSDdVUa6u8wA1/y9Q6LvZSIoKhpxXB1CJaxBC2dM/LozPvyiFdyqWopWtR2BV+E3KBj//nIW99JzREuknbrUaI+J3UaJpGz16WB8t+8XkYjoeeiEhoY+EM8fW7ZsGYYMGSKS+kRFRcHZOX9JrzppwnFoyveC54YyHoeCh4cHhg0bJj/UiT8TZZpyHJrw2sGfCXDv0AGk/vozXjt4FFH37qGysTH+adkMNpOnQt+9ovi3ShZ/ryjThOMo6WM4tS8OBzdHIynu2StADCqUQ+uezvB8+NDVffrte4sazw1lmnAc2v66se3Gbvx6erlIyl6r3Ud+qIOmnKN8z6HA41D25Lmh8+Ah8fyxpUuXYvjw4SKpT1hYGNzd3UVSH004Dk35XvDcUMbjUHBycoKfn5/8UCf+TJRpynFowmsHfyb5zrz9Jv48cgRfXbmuGIZ06YqqY1Uvvy5u/L2iTBOOQ13HsG3NFWxcfhFpKZmiUc3C2hC9Btf+z9v3FhWeG8o04Tj4ugH8c3w1vt33s0jKPm77Ht5oNkCkkqMp5yjfcyjwOJQ9eW7wMhkiIiIt4ujjK18q86tHEyxqXF/uErdvQ2ZkhPycSF269quBL1d4w+ftejCooCfawlKT7sl7iUx4eyMObLkpWiLt8nqz/hjWaqhIyqTLZf49vU4kInoaDkOIiIi0iL2XD8pb26CWmSlsDQxEC8QErhHPiNSnnJ4O+r5ZFwErvOBcM1u0qsVGpOGXBUflu88c3xsuWiLt8W7L1/Gmh+oVIAG7vsP681tEIiJVOAwhIiLSMtKdZZ4Uty4Y2QkJIhGpl7Fpebg1yMLC5X3R0auaaFULvZqM76cfxNxRO3HuWLRoibTDR23eQ49qnURSNnvbV9h+eY9IRPQkDkOIiIi0jL23L3QqGIqkEBvMO8uQZrG2M8abnzXFrF97wrNrJdGqduVsPL6asBeLJu3FtRAO9kh7vNVgIPrW6y6Ssikb52Df9UMiEVFBHIYQERFpmXIVKsC4U2f5eXxWFt49dhI/3wxFbFAgcu/elXsiTeLkbo73x7XA5O+6onHr/NtDP83ZI9GY/fkO/DDzEMKvp4iWqGyb0PV/6Faro0jKxgVPw9GwkyIR0SMchhAREWkh405doKOriyOJybiUdge/3AzFufgExAVxdQhprso1rfHptDYYs6AD6jRxEK1qR3eHwf+DLfgt4Bjio+6IlqjsmtpzHNpV9RRJ2fjgaTgTGSISEUk4DCEiItJCumZm8maqTawsRAOsjohCbHAgHty/LxoizVS7sQNGz++Az6a3QdXaNqJVbd+mGxg3dAOWf38Kt5PviZaobJrrNQUtKjUVSSEzJwvj103DpdiroiEiDkOIiIi0lKNPPzgbGqK3U/5f2LfFxuFKVBRiuTqESolGni6Y9E0XDJ/YEi6VFIM9VbatuQK/weuw9rdzyLyXK1qismdeX380dKknksLte2mYsG46biXx7ktEEg5DiIiItJSBoyNse/REf1fFHgyrw6MQG8hhCJUuLTtVxIyfe+Ct/zWDjYOxaAu7n5uH9X9fgN/gYGxeeUm0RGVLeb3ymOflj1oO1UWjEHcnQb5kJvp2rGiItBeHIURERFrM0bsfqpuaoKOdrZyDoqIRHhaK+E0b5ExUmrTvXRUL/umLgR80hIm5gWgLy7iTjVVLz2D04HXYte6aaInKDrMKpvJApJK1u2gUwlMi5YFIcgY3GCbtxmEIERGRFjOqXBk2HTqiv6uzaMTeIVwdQqVY9wG1ELDcC15D60K/fDnRFpYUn46/vj6BSe9uwsFtt0RLVDbYmtjIAxFnc0fRKFxLuCnfZSY9K0M0RNqHwxAiIiItZ+/ti4aWFmhubSXnVRFRiLt2DYm7dsiZqDQqb1AO3m/Vk4ci3fvXFK1q0WG38fO8I5jx8Tac3B8hWqLSz9XSGXO9/GFjkv/6XlBI9CWMWzcN9/O4aTZpJw5DiIiItJxp7TqwbNHy8eqQnLw8rI6IRGxQoJyJSjNTCwMM/LAR5v/TV76M5lluXk7Ct1MPYP7oXQg5ESNaotKtqm0lzOkzBSYGhffTORl+Rl4hQqSNOAwhIiIiOHj7wtPGGvXMzeUsXSpz++IFpBw+JGei0s7WwVjeYHXGzz3RolPhfRQKunQ6DgHj9mDxlP2IvHFHtESlV12nWvIKEf1yeqJROHjzKCatnyUSkfbgMISIiIhg3qQpzBo0RH+3/NUhqTk5+XuH8Da7VMa4VDLHBxNbYdLizmjUSrFXjiqnD0bi51nnsXTOYUTeShUtUenUxLWBPBBRZdfVfZixZaFIRNqBwxAiIiKSSatDutjboYpJ/lLqm3fTcfvUSdw+c1rORGVJ1Tq2+GxGW/jNa49ajexFq9rhHaGY/P5m/PHVcSTE3hUtUenTqpIHZvX5QiRlmy5sx/wdi0UiKvs4DCEiIiKZVes2MK5eAwEN6+HjapXhV7Oa3MdxdQiVYXWbOmLswo74ZGprVK5pLVrV9my4jrGvr8fKH07jTmqmaIlKl47V28C/x1iRlAWe3YjFe5eKRFS2cRhCREREj0mrQ+wrVMAb7m4w0M1/m5B88ADuXr4sPycqq5q0ccXk77ri/XEt4OSev3fO02xZfRl+g9ch6I/zyMnmnTio9OleuxPGdf5MJGXLT6zBjwd+F4mo7OIwhIiIiB6z7dIVhq5uIinEBXN1CGkHz66VMOvXnnjjsyawsjUSbWHSECT4zxB5KCINR4hKG+8GvTCyw4ciKfv96HL8cXSFSERlE4chREREpMTe20c8U0jYsR33wsJEIir7OnlVR8AKL3R+zQ3GpuVFW5h0uYx02czYN9bLl9EQlSYDG/vgw9Zvi6TshwO/YcVJDsKp7OIwhIiIiJQ49PVGeRtb+XnUvXv4MzQcOXl5iAlcI3dE2qR1TxcsXO6FPm/UQTm9p791Toi5K2+wKm20enhnqGiJNN9bzQfjnRZDRFL29Z4fEXRuo0hEZQuHIURERFSIo4+v/HXOxStYcv0mxp+7gPiN65EdHy/3RNqkgqEefN+pj4DlXujar4ZoVZNuwbt09mHM/HS7fGteotJguOdbGNykn0jK5m1fjM0Xd4hEVHZwGEJERESF2Hv7opyJCaqbmsr5UGISzqTe5uoQ0mrmVhUw+KPGmPdnH7TrWUW0qt24mIjFU/Zj4djduHQ6TrREmuuz9sPh26C3SMqmb16A3Vf3i0RUNnAYQkRERIXoli8PR29fDHBzFg2wOjwSsUGByE1LEw2RdrJzNsHbfh6Y+mN3eLQvvOFwQRdOxmL+6F34duoB3LycJFoizTSm86foWaeLSMomrp+JgzePiURU+nEYQkRERCpJq0McTUzg4+Ik513xCbiUnIzYIG6oRyRxr2qJEZM9MWFRZzRokf/fydOc3B+BGR9vw8/zjiA67LZoiTTP5O6j0alGW5GUjQ+ehpMRZ0UiKt04DCEiIiKV9M3N4eDtgwGuLqIBVkVEyatD8nJyRENE1evZYuSsdvjfnPao0cBOtKod3HYLk97dhL8Wn0BSfLpoiTTLzN6T4Fm5uUgKuXm58kAkJOaSaIhKLw5DiIiI6KkcvHxR0dgIPRwd5Lw5JhbXY2MRx9UhRIXU93DE+C874aMpnqhY3Uq0qu0KvobRg9dh1dIzyLibLVoizTHPyx9N3RqJpHA3K10eiFxLuCkaotKJwxAiIiJ6KgMHB9j16o0Broq9Q1ZF5O8dQkSqNWvnBv8l3fDemOZwcMnfhPhpNq+8hFEDg7H+7wu4n5snWiL1K6dbTh6I1HWsJRqFpPQUeSASkRIlGqLSh8MQIiIieiYHb1/UNDNFRztbOQdGRiM8PAxxG9bJmYhUa929Mub80RtDPm4MC2tD0RaWlZmLtb+dg9/gddi25opoidTPqLyhPBCpZlf47knRt2PlgUj8nUTREJUuHIYQERHRMxlVrASbjp3Q3+2JvUMCeakM0fPo4lsDASu80O+9+jA00hdtYbeT72H596cwbugG7Nt0Q7RE6mVlbCkPRNwsFSsEH7mZFIZxwdOQlnlHNESlB4chRERE9J8cfPqhoYU5Wlrn74OwMjwSMTeuI3HndjkT0bPp6uqg95A68lCk95Da0HmYnyY+6g5+CzgG/w+24OjuMNESqY+jmT3mevnD3jR/hWBBl+OuygOR7Pvc+4ZKFw5DiIiI6D+Z1KwFy5atMECsDrn/4AHOpKQihqtDiF6IobE++r3XAAHLvdDZp7poVQu/noIfZh7C7M934Oq5FNESqUcla3d5IGJhaC4ahTOR57Hw0PciEZUOHIYQERHRc5FWh7SwtsIQd1fUMTdDUytLpF+5jOQD+8W/QUTPy9LGEK9/0gRzfu+N1t0qiVa1ayEJWLboEr6asBdXzsaLlqjk1bSvhjl9p6CCnoFoFM7FXcT4ddNFItJ8HIYQERHRczFv1Fh+fFqtCn5u1hgmenpyHxvMO8sQvSwHV1O8N7YFpnzfDU3buopWtXPHojF31E58P/0gQq8mi5aoZDV0qSuvENHRKXyp195rB+G/ca5IRJpNJzQ09IF4/tiyZcswZMgQkdQnKioKzs6FN+opaZpwHJryveC5oYzHoeDh4YFhw4bJD3Xiz0SZphyHJrx28Gei7GWPI+vMaSR/+7VIClb/Gw2DOnVFen78vaJME45DU74X2npuhF5Jw4GNkbgekiqap2vY2g5tejrD2uHpd6opappwfvB1Q5m6juNEzFksPPidSMo6VmqD4U3eFKlk8T2HAo9D2ZPnhs6Dh8Tzx5YuXYrhw4eLpD5hYWFwd3cXSX004Tg05XvBc0MZj0PByckJfn5+8kOd+DNRpinHoQmvHfyZKHuV4wj59CPcvXxJpHyWLVqhxoxZIj0//l5RpgnHoSnfC20/N84eicamFRdx9XyCaJ5O2nuk56BasLQxEk3x0YTzg68bytR5HNsv78aUp6wE6d/IC6M6fiRSyeF7DgUeh7Inzw1eJkNEREQvxMHbVzwDwjMycDEtDSlHDuHOxQuiJaJX1aCFEyYs6owPv/CEaxUL0aq2I/Aq/AYFY82v53AvI0e0RMWvS80OmNRtlEjKVp8Oxvf7fxGJSPNwGEJEREQvxKZTZxhWrCg//+zUObx37BQ2RsciLoh7hxAVteYd3DB9aQ/0easK7JxMRFuYtNZ7wz8X5KHIxmUXH+ZCi7+JikXvut3g1/FjkZT9dWwVfjn8t0hEmoXDECIiInphDl75q0MefeBaHRGFxN07kXHrppyJqGg1aWePeX/1waARjWBmWUG0hd1Lz8G/v5yF36B18ooRopLwWqO+eL1eP5GU/XzoL/xzfLVIRJqDwxAiIiJ6Yfa9+8DA3h793fI3RLty5w52xydwdQhRMev2Wk0ErPCCz9v1YFAh/45OqqQkZuCfb09iwtsbsX8Lh5RU/PrU6Ib3W6neNPXbfT/j39PrRCLSDByGEBER0Uux9/ZFf1eXx7fYlVaHxG3agKzYGDkTUfHQ09NF3zfrykMRaePUZ4mNSMOvC45i2oitOLEvQrRExeO9lm/gTY8BIikL2PUdNoRsFYlI/TgMISIiopfi6O0LYwsL9HfNXx1yOiUVR5OSERO4Vs5EVLyMTcuj/7CGWLjcCx36VhWtaqFXk/HdtAOY57cL549zYEnF56M278l3klFl1tYv5TvQEGkCDkOIiIjopejo6cHRp588DNHV0ZE7eXVI0Frk3k6VMxEVP2s7Iwz9vBlm/tITrbrkb278NJfPxOHL8XuwaNI+XAv579v2Er0M6Za6fev1EEmZdCvefTcOi0SkPhyGEBER0Uuz9/aBlbHx49UhBxOTcD4llatDiNTAuaI5ho1vicnfdkWT1i6iVe3skSjM/nwHfph5COHXU0RLVHQmdB2JrjU7iKRsfPA0HA09KRKRenAYQkRERC9Nz8T08eqQR1ZFRCI2aC3uZ2WKhohKUuVa1vhkWhuMWdARdZo4iFa1o7vD4P/BFvwWcAxxUXdES1Q0pvUaj3bVPEVSkO5EJg1EzkZdEA1RyeMwhIiIiF6Jg7cPnA0N0dvJUc7bY+NxLS6ed5YhUrPaje0xen4HfDajLarUshatavs23cD4oRuwYslppKVwkElFZ27fKWhesYlICpm5WfJA5HLcNdEQlSwOQ4iIiOiVlLe1g30fLwwosDpE2jtEWh1CROrXqJUzvvi2K4ZNaAnnSuaiVW3rv5fhNzgYgb+fR1ZmrmiJXs08L380dKknkkLqvdvyQORWUphoiEoOhyFERET0yqTVIdVMTdDR3lbOQVHRyE5MRNy6IDkTkfq16lwRM3/uiaEjm8HGwVi0heXm5GHdXyHwGxSMTSsviZbo5RnoGcgDkZr21UWjEHcnQR6IxKTFiYaoZHAYQkRERK/M0M0dNp27or+rC/R1dVHLzFTuuTqESPN06FMVC/7pi4EfNIKpuYFoC0u/k43VS89g9OBg7ArmpQz0aswqmMoDkcrW7qJRCE+JwrjgaUhO52a+VHI4DCEiIqIiIa0OaWhhjt0d2uBXj/zrw+9FRCBh21b5ORFplu4DamLhci94Da0H/fLlRFtYUnwG/lp8ApPe3YgzB+NFS/Ti7ExtMNfLH07mhTf2vRZ/Qx6IZGTfEw1R8eIwhIiIiIqESY2asPJsg3I6OqLJFxu0RjwjIk1T3qAcvN+qi4AVXuj2Wg3RqhYdloagX65jxifbcepApGiJXoyrpbM8ELE2thSNQkjMJXkgcj/vvmiIig+HIURERFRkHHx8xTOF9GvXkLx/n0hEpImky2UGjWiM+X/3QfveVUSr2s1LifjGfz8WjNmNCydjRUv0/KrZVpYHIiYGhfeuORF+Wh6IEBU3DkOIiIioyJg1aAjzxk1FUogJ5OoQotLA1tEEb/3PA9N/6oEWnQrv7VDQxVOxWDh2NxZP2Y/rFxNFS/R86jrWkgcierp6olE4ePMovtgwSySi4sFhCBERERWpR6tDIjLuodPu/fjk5BncOX8OqcePyT0RaT7Xyhb4YGIrTFrcRb4177OcPhiJWZ9ux9LZhxF5K1W0RP+tiWsDeSCiys4r+zBjy0KRiIoehyFERERUpCxbtIRpnbpIyspCxv37OJmSin8jonhnGaJSqGodG3w2oy385nVArUb2olXt8M5QTH5/M/746jgSY9NFS/RsnpU9MLvPFyIp23RhOxbs+EYkoqLFYQgREREVOQcvHzS0tIC7sZGcV0dEIfXYUdwJOS9nIipd6jZ1wNiFHTHgoxqoVMNKtKrt2XAdY15fh5U/nsHd21miJXq6DtXbYEqPMSIpW3t2AxbvWSoSUdHhMISIiIiKnHWHjjCqXAUDXF3kHJ6RgY3RsVwdQlTK1W5qjSnfd8P741rAyc1MtKptWXUJfoODEfxnCHKyeXcQerYetTtjXJfPRFK2/OQaLD34h0hERYPDECIiIioWDt4+8HVxgn0FAzmviohE0t49SL9xXc5EVHp5dq2EWb/1whufNYWVXf4KMFWys+4j6I/z8lBky+rLoiVSzbt+L3ze/gORlP12ZBn+OLpcJKJXx2EIERERFQu7Hr1QwdER/cXqkKt37mJnXDziuDqEqMzo5FUNAcu90H9YQxiblhdtYXdSs7Dyh9Py5TPSZTRETzOoiS8+bP2OSMp+OPA7Vp4KFIno1XAYQkRERMXG3tsXA1ydYa6vL+dVEVGI37IZmdFRciaisqHnoFryUKTPG3WhW05HtIVJG6tKG6xOfn8TjuwMEy2RsreaD8LbzQeLpGzR7h8QdHajSEQvj8MQIiIiKjaOPv1gZGUlD0Qk51Jv42BiEvcOISqDDAz14PtOPXko0sW3hmhVi7x1Gz/OPoRZn23H6UMcjlJhH7R+G4Ob9hNJ2bwdi7Hl4k6RiF4OhyFERERUfHR08leHuLnAQDf/bceq8EjEBq5FTnKynImobLGwNsSQjxtj7p+90bZHFdGqdv1CIhZP3oeAcbtx6XScaInyfdZuOHwa9BJJ2bTN87Hr6n6RiF4chyFERERUrKTVIWbGxvJARHIsOQUnHj5iuDqEqEyzdzbFO6M9MPXH7vDo4CZa1UJOxGL+6F34duoB3LycJFoiYGznz9CzTheRlE1aPxOHbh0TiejFcBhCRERExaqckZE8EHl0qYxkdUSUvJFqudxc0RBRWeVe1RIjvvDEhEWd0aCFk2hVO7k/AjM+3oaf5h1BTHiaaEnbTe4+Gh2rtxVJ2fjgaTgZcVYkoufHYQgRPdWNGzego6Pz+NGiRQvxT4iIXox0qYyNgQH6i4FISnYO7t+7B+trV+VMRGVf9Xq2GDmrHUbNaY8a9W1Fq9qhbbcw8Z2N+HvxSSQnZIiWtNmsPpPgWbm5SAo593PlgciFGN66mV4MhyFE9FRVq1bFkiVL8ODBA/kRHh6OgQMHin9KRPT8yltbw8HLB6NqVMPXjRtgUeP6cm99/Yr8+kJE2qOehyPGf9UZIyZ7wr2apWhV2xl8FX6DgrH6p7NIv5MtWtJW87z80cStoUgKd7PSMX7dNFxPuCUaov/GYQgRqbRt2zY4Ojriww8/FA0wZcoU7N/PjaqI6OU4ePvKXz2sLGFUrpz8XD8zE3FBgfJzItIuHu3dMPWH7nh3dHM4uJiKVrVNKy5i9OBgrP/7Ah7kiZK0TjndcpjX1x/1nGqJRiHxbrK8QiQt765oiJ6NwxAiUqlr166Ijo4WKd/Nmzfh5vbsDdCIiJ6mgosLbLt2F0mBt9kl0m5telTGnD96Y8gnTeQ70TxN5r1crP3tHE6uN8a2NVdES9rG2MAIc738Uc22smgUom7HYOe9w0i4mygaoqfjMISIntuCBQvw9ttvi0RE9OIcvH3EM4XM6CgkbNksEhFpqy4+1RGwwgv93muACkZ6oi0sJ1MXy78/hXFD12Pf5puiJW1iZWQpD0TcLPPvUlZQal4axkkrRDLviIZINQ5DiOi5SBuoDhgwQOmyGSKiF2VcrTqs2raTn99KT8fnp85iS0wcV4cQkUxXVwe9h9TGlyu80Wtw7YfvP8Q/UCE+6i5+W3gUUz/YgmN7wkVL2sLJ3EEeiNiZ2IhG4VLsVXkgkp3LfWbo6XR+/PHHQruW7du3D23bqr51UUlKSkqCtbW1SOqjCcehKd8LnhvKSvtx2NjYwNfXV94UddWqVaIFtm7dinbt2kFfXx+3bt2SN1KVBiErV66UN1HdsmWL+DcVxo4diy5dusgPdeK5oUxTjkMTXjv4M1GmzuMwTohHlT078f31m/grNBy6Dz/tbGzbCrfbtMdtV/Vcisefi4KmfC/4nkOZth5HVoYOoi8bIPaavmiezsz2PpxqZsPSqWRu2c1zQ5m6jiPxfgq23TuArAeFBx/OevboathapJLDc0OZphzHk79XdB6o2MJ96dKlGD58uEjqExYWBnd3d5HURxOOQ1O+Fzw3lJX145BurSsNQsaMGYP58+eLVjUnJyf4+fnJD3XiuaFMU45DE147+DNRpu7juDxxHLZu2YKRp8/J+d3KFTGqT2/UWfSNnEsafy4KmvK94HsOZdp+HDHhadi04hIObP3vy2Kku9X0GlQbNRrYiaZ48NxQps7jOBMZgv+tnYjMnCzRKLSr6om5XlNEKhn8mSjTlON48vcKL5Mhoqd63kEIEdGLcvDxRXNrKzS0tJDzqvBIJJ8/h9RjR+VMRFSQo5sZ3hvbHP5LusHa5dkrP84fi8HcUTvx/fQDCL2aLFoqyxq61JUvmVFl7/WDmLppnkhEjwD/ByPXVlSUsY/1AAAAAElFTkSuQmCC;" vertex="1" parent="1">
          <mxGeometry x="40" y="10" width="1091" height="820" as="geometry" />
        </mxCell>
      </root>
    </mxGraphModel>
  </diagram>
</mxfile>
